<?xml version="1.0" encoding="UTF-8" standalone="no"?>
<svg
   width="300"
   zoomAndPan="magnify"
   viewBox="0 0 225 224.99999"
   height="300"
   preserveAspectRatio="xMidYMid"
   version="1.0"
   id="svg61"
   sodipodi:docname="1.svg"
   inkscape:version="1.3 (0e150ed, 2023-07-21)"
   xmlns:inkscape="http://www.inkscape.org/namespaces/inkscape"
   xmlns:sodipodi="http://sodipodi.sourceforge.net/DTD/sodipodi-0.dtd"
   xmlns="http://www.w3.org/2000/svg"
   xmlns:svg="http://www.w3.org/2000/svg">
  <sodipodi:namedview
     id="namedview61"
     pagecolor="#ffffff"
     bordercolor="#000000"
     borderopacity="0.25"
     inkscape:showpageshadow="2"
     inkscape:pageopacity="0.0"
     inkscape:pagecheckerboard="0"
     inkscape:deskcolor="#d1d1d1"
     inkscape:zoom="0.472"
     inkscape:cx="184.32203"
     inkscape:cy="336.86441"
     inkscape:window-width="856"
     inkscape:window-height="981"
     inkscape:window-x="867"
     inkscape:window-y="38"
     inkscape:window-maximized="0"
     inkscape:current-layer="svg61" />
  <defs
     id="defs5">
    <g
       id="g1" />
    <clipPath
       id="7db97bcadf">
      <path
         d="m 122.55859,77.722656 h 127.125 V 199.90625 h -127.125 z m 0,0"
         clip-rule="nonzero"
         id="path1" />
    </clipPath>
    <clipPath
       id="ea33e108dc">
      <path
         d="m 249.68359,86.40625 h 6.98828 v 6.074219 h -6.98828 z m 0,0"
         clip-rule="nonzero"
         id="path2" />
    </clipPath>
    <clipPath
       id="a8d407694e">
      <path
         d="m 237,75.40625 h 9 V 88 h -9 z m 0,0"
         clip-rule="nonzero"
         id="path3" />
    </clipPath>
    <clipPath
       id="76cb655d82">
      <path
         d="m 247.08594,179.30078 h 9.58593 v 6.94531 h -9.58593 z m 0,0"
         clip-rule="nonzero"
         id="path4" />
    </clipPath>
    <clipPath
       id="60e86827a4">
      <path
         d="M 117.94141,97 H 125 v 5 h -7.05859 z m 0,0"
         clip-rule="nonzero"
         id="path5" />
    </clipPath>
  </defs>
  <g
     id="g62"
     transform="translate(-74.668354,-42.457626)">
    <g
       clip-path="url(#7db97bcadf)"
       id="g6">
      <path
         fill="#000000"
         d="m 207.57812,78.636719 c -2.28515,0 -4.57031,0.441406 -6.7539,1.332031 l -66.05469,26.96094 c -9.15625,3.73828 -13.57422,14.2539 -9.85156,23.44531 l 23.27344,57.48047 c 1.80468,4.44922 5.22656,7.93359 9.63671,9.80078 4.41016,1.86719 9.28516,1.90234 13.71875,0.0898 l 66.05469,-26.96093 c 4.4375,-1.8086 7.90235,-5.2461 9.76563,-9.67188 1.85937,-4.42969 1.89062,-9.32031 0.0859,-13.77344 l -23.2734,-57.476519 c -1.80078,-4.453125 -5.22657,-7.933593 -9.63672,-9.804687 -2.24219,-0.949219 -4.60156,-1.421875 -6.96485,-1.421875 z M 164.79297,199.91016 c -2.46875,0 -4.9375,-0.4961 -7.28516,-1.49219 -4.61328,-1.95313 -8.19531,-5.59375 -10.07812,-10.25 L 124.15234,130.6875 c -3.89453,-9.61328 0.73047,-20.61719 10.3086,-24.52734 l 66.05468,-26.957035 c 4.64063,-1.894531 9.73438,-1.859375 14.35157,0.09375 4.61328,1.953125 8.1914,5.59375 10.07812,10.253906 l 23.27344,57.476559 c 1.88672,4.66016 1.85547,9.77344 -0.0937,14.40625 -1.94531,4.63282 -5.57422,8.22657 -10.21094,10.1211 l -0.15625,-0.38672 0.15625,0.38672 -66.05469,26.96093 c -2.28125,0.92969 -4.67578,1.39454 -7.0664,1.39454"
         fill-opacity="1"
         fill-rule="nonzero"
         id="path6" />
    </g>
    <path
       fill="#000000"
       d="m 148.28125,85.796875 c -0.20703,0 -0.38672,-0.160156 -0.41016,-0.375 -0.0234,-0.226563 0.14453,-0.429687 0.3711,-0.453125 l 0.22265,-0.01953 c 0.22657,-0.02344 0.42969,0.148437 0.44922,0.375 0.0195,0.226562 -0.14844,0.429687 -0.375,0.449219 l -0.21484,0.01953 c -0.0117,0.0039 -0.0273,0.0039 -0.043,0.0039 z m -3.46094,0.625 c -0.18359,0 -0.35156,-0.121094 -0.39844,-0.308594 -0.0586,-0.21875 0.0742,-0.449219 0.29297,-0.503906 l 0.21485,-0.05859 c 0.22265,-0.05469 0.44531,0.07813 0.5039,0.300781 0.0547,0.222657 -0.0781,0.445313 -0.30078,0.503907 l -0.20703,0.05469 c -0.0352,0.0078 -0.0703,0.01172 -0.10547,0.01172 z M 141.5,87.589844 c -0.16016,0 -0.30859,-0.09375 -0.37891,-0.25 -0.0898,-0.210938 0.004,-0.453125 0.21485,-0.546875 l 0.20312,-0.08984 c 0.21094,-0.08984 0.45313,0.0078 0.54297,0.21875 0.0898,0.210937 -0.008,0.453125 -0.21875,0.542969 l -0.19531,0.08984 c -0.0547,0.02344 -0.11328,0.03516 -0.16797,0.03516 z m -3.09766,1.671875 c -0.13672,0 -0.26953,-0.06641 -0.34765,-0.191407 -0.125,-0.191406 -0.0664,-0.449218 0.125,-0.570312 l 0.1875,-0.121094 c 0.19531,-0.125 0.44922,-0.06641 0.57031,0.128906 0.12109,0.191407 0.0625,0.449219 -0.12891,0.570313 l -0.18359,0.117187 c -0.0703,0.04297 -0.14453,0.06641 -0.22266,0.06641 z m -2.80078,2.136719 c -0.11328,0 -0.22656,-0.04688 -0.30859,-0.136719 -0.15235,-0.171875 -0.13672,-0.433594 0.0312,-0.585938 l 0.16797,-0.152343 c 0.17187,-0.148438 0.43359,-0.128907 0.58593,0.04297 0.14844,0.171875 0.12891,0.433594 -0.043,0.585938 l -0.16016,0.140625 c -0.0781,0.07031 -0.17578,0.105469 -0.27344,0.105469 z m -2.4414,2.546874 c -0.0898,0 -0.1836,-0.03125 -0.26172,-0.09375 -0.17578,-0.144531 -0.19922,-0.40625 -0.0547,-0.582031 l 0.14453,-0.175781 c 0.14453,-0.175781 0.40625,-0.195312 0.57813,-0.04687 0.17578,0.144531 0.19921,0.40625 0.0508,0.582031 l -0.13672,0.164063 c -0.082,0.101562 -0.19922,0.152343 -0.32031,0.152343 z m -2.01563,2.898438 c -0.0703,0 -0.14453,-0.01953 -0.20703,-0.05859 -0.19922,-0.117187 -0.26172,-0.371094 -0.14844,-0.566406 l 0.11719,-0.195312 c 0.11719,-0.195313 0.37109,-0.257813 0.56641,-0.140626 0.19531,0.117188 0.25781,0.371094 0.14062,0.570313 l -0.11328,0.1875 c -0.0742,0.128906 -0.21484,0.203125 -0.35547,0.203125"
       fill-opacity="1"
       fill-rule="nonzero"
       id="path7" />
    <path
       fill="#000000"
       d="m 238.87109,185.00391 c -0.0977,0 -0.1914,-0.0312 -0.26953,-0.10157 -0.17578,-0.14843 -0.1914,-0.41015 -0.043,-0.58203 l 0.14063,-0.16797 c 0.14453,-0.17187 0.40625,-0.19531 0.57812,-0.0469 0.17578,0.14844 0.19922,0.41015 0.0508,0.58594 l -0.14453,0.16796 c -0.082,0.0977 -0.19922,0.14454 -0.3125,0.14454 z m -2.49609,2.49218 c -0.11719,0 -0.23438,-0.0508 -0.31641,-0.14843 -0.14843,-0.17188 -0.125,-0.4336 0.0469,-0.58204 l 0.16406,-0.14062 c 0.17188,-0.15234 0.43359,-0.13281 0.58203,0.0391 0.14844,0.17578 0.13281,0.4336 -0.043,0.58594 l -0.16797,0.14453 c -0.0781,0.0664 -0.17187,0.10156 -0.26562,0.10156 z m -2.85156,2.07032 c -0.14063,0 -0.27735,-0.0703 -0.35547,-0.19922 -0.11719,-0.19532 -0.0547,-0.45313 0.14062,-0.57032 l 0.17969,-0.11328 c 0.19531,-0.12109 0.44922,-0.0625 0.57031,0.13282 0.1211,0.1914 0.0625,0.44921 -0.1289,0.57031 l -0.19141,0.12109 c -0.0703,0.0391 -0.14453,0.0586 -0.21484,0.0586 z m -3.13672,1.59765 c -0.16406,0 -0.31641,-0.0977 -0.38281,-0.25781 -0.0859,-0.21094 0.0117,-0.45313 0.22265,-0.53906 l 0.19922,-0.082 c 0.21094,-0.0898 0.45313,0.008 0.54297,0.21875 0.0859,0.21093 -0.008,0.45312 -0.21875,0.54296 l -0.20703,0.0898 c -0.0547,0.0195 -0.10547,0.0273 -0.15625,0.0273 z m -3.34766,1.08594 c -0.1875,0 -0.35547,-0.12891 -0.40234,-0.31641 -0.0547,-0.22265 0.082,-0.44531 0.30469,-0.5 l 0.21093,-0.0508 c 0.21875,-0.0547 0.44532,0.0781 0.5,0.30078 0.0547,0.22266 -0.082,0.44922 -0.30468,0.50391 l -0.21485,0.0508 c -0.0312,0.008 -0.0625,0.0117 -0.0937,0.0117 z m -3.48047,0.54297 c -0.21093,0 -0.39453,-0.16406 -0.41015,-0.37891 -0.0156,-0.23047 0.15234,-0.42969 0.3789,-0.44531 l 0.21875,-0.0195 c 0.22657,-0.0195 0.42578,0.14844 0.44532,0.3789 0.0195,0.22657 -0.14844,0.42969 -0.375,0.44532 l -0.22266,0.0195 c -0.0117,0 -0.0234,0 -0.0352,0 z m -13.86718,0.0664 h -0.22266 c -0.22656,0 -0.41406,-0.18359 -0.41406,-0.41406 0,-0.23047 0.1875,-0.41406 0.41406,-0.41406 h 0.22266 c 0.22656,0 0.41015,0.18359 0.41015,0.41406 0,0.23047 -0.18359,0.41406 -0.41015,0.41406 z m 3.51953,0 h -0.21875 c -0.22657,0 -0.41407,-0.18359 -0.41407,-0.41406 0,-0.23047 0.1875,-0.41406 0.41407,-0.41406 h 0.21875 c 0.23047,0 0.41406,0.18359 0.41406,0.41406 0,0.23047 -0.18359,0.41406 -0.41406,0.41406 z m 3.52343,0 h -0.21875 c -0.22656,0 -0.41406,-0.18359 -0.41406,-0.41406 0,-0.23047 0.1875,-0.41406 0.41406,-0.41406 h 0.21875 c 0.23047,0 0.41407,0.18359 0.41407,0.41406 0,0.23047 -0.1836,0.41406 -0.41407,0.41406 z m 3.52344,0 h -0.21875 c -0.22656,0 -0.41406,-0.18359 -0.41406,-0.41406 0,-0.23047 0.1875,-0.41406 0.41406,-0.41406 h 0.21875 c 0.23047,0 0.41406,0.18359 0.41406,0.41406 0,0.23047 -0.18359,0.41406 -0.41406,0.41406"
       fill-opacity="1"
       fill-rule="nonzero"
       id="path8" />
    <path
       fill="#b1ea37"
       d="m 221.83984,188.28906 h -71.30468 c -10.12891,0 -18.33594,-8.24219 -18.33594,-18.40625 v -62.04687 c 0,-10.167971 8.20703,-18.410159 18.33594,-18.410159 h 71.30468 c 10.125,0 18.33594,8.242188 18.33594,18.410159 v 62.04687 c 0,10.16406 -8.21094,18.40625 -18.33594,18.40625"
       fill-opacity="1"
       fill-rule="nonzero"
       id="path9" />
    <path
       fill="#000000"
       d="m 170.375,78.882812 c -0.10547,0 -0.21484,-0.03906 -0.29297,-0.121093 -0.16016,-0.164063 -0.16016,-0.425781 0,-0.585938 l 0.53516,-0.539062 c 0.16015,-0.164063 0.42187,-0.164063 0.58203,0 0.16406,0.160156 0.16406,0.425781 0,0.585937 l -0.53516,0.539063 c -0.0781,0.08203 -0.18359,0.121093 -0.28906,0.121093"
       fill-opacity="1"
       fill-rule="nonzero"
       id="path10" />
    <path
       fill="#000000"
       d="m 166.62109,82.648438 c -0.10547,0 -0.21093,-0.03906 -0.29297,-0.121094 -0.16015,-0.160156 -0.16015,-0.421875 0,-0.585938 l 0.53516,-0.539062 c 0.16406,-0.160156 0.42188,-0.160156 0.58594,0 0.16015,0.164062 0.16015,0.425781 0,0.589844 l -0.53906,0.535156 c -0.0781,0.08203 -0.1836,0.121094 -0.28907,0.121094"
       fill-opacity="1"
       fill-rule="nonzero"
       id="path11" />
    <path
       fill="#000000"
       d="m 167.15625,78.882812 c -0.10547,0 -0.21094,-0.03906 -0.29297,-0.121093 l -0.53516,-0.539063 c -0.16015,-0.160156 -0.16015,-0.425781 0,-0.585937 0.16016,-0.164063 0.42188,-0.164063 0.58204,0 l 0.53906,0.539062 c 0.16015,0.160157 0.16015,0.421875 0,0.585938 -0.082,0.08203 -0.1875,0.121093 -0.29297,0.121093"
       fill-opacity="1"
       fill-rule="nonzero"
       id="path12" />
    <path
       fill="#000000"
       d="m 170.91016,82.648438 c -0.10547,0 -0.21094,-0.03906 -0.29297,-0.121094 l -0.53516,-0.535156 c -0.16016,-0.164063 -0.16016,-0.425782 0,-0.589844 0.16016,-0.160156 0.42188,-0.160156 0.58203,0 l 0.53516,0.539062 c 0.16406,0.164063 0.16406,0.425782 0,0.585938 -0.0781,0.08203 -0.1836,0.121094 -0.28906,0.121094"
       fill-opacity="1"
       fill-rule="nonzero"
       id="path13" />
    <path
       fill="#000000"
       d="m 139.32422,194.55859 c -0.10547,0 -0.21094,-0.0391 -0.28906,-0.12109 -0.16407,-0.16406 -0.16407,-0.42578 0,-0.58594 l 0.53515,-0.53906 c 0.16016,-0.16016 0.42188,-0.16016 0.58203,0 0.16016,0.16406 0.16407,0.42578 0,0.58594 l -0.53515,0.53906 c -0.0781,0.082 -0.1875,0.12109 -0.29297,0.12109"
       fill-opacity="1"
       fill-rule="nonzero"
       id="path14" />
    <path
       fill="#000000"
       d="m 135.57422,198.32422 c -0.10938,0 -0.21485,-0.0391 -0.29297,-0.1211 -0.16016,-0.16015 -0.16016,-0.42187 0,-0.58593 l 0.53516,-0.53907 c 0.16015,-0.16015 0.42187,-0.16015 0.58593,0 0.16016,0.16407 0.16016,0.42579 0,0.58985 l -0.53906,0.53515 c -0.0781,0.082 -0.18359,0.1211 -0.28906,0.1211"
       fill-opacity="1"
       fill-rule="nonzero"
       id="path15" />
    <path
       fill="#000000"
       d="m 136.10937,194.55859 c -0.10546,0 -0.21093,-0.0391 -0.29296,-0.12109 l -0.53516,-0.53906 c -0.16016,-0.16016 -0.16016,-0.42188 0,-0.58594 0.16016,-0.16016 0.42187,-0.16016 0.58203,0 l 0.53906,0.53906 c 0.16016,0.16016 0.16016,0.42188 0,0.58594 -0.082,0.082 -0.1875,0.12109 -0.29297,0.12109"
       fill-opacity="1"
       fill-rule="nonzero"
       id="path16" />
    <path
       fill="#000000"
       d="m 139.86328,198.32422 c -0.10937,0 -0.21484,-0.0391 -0.29297,-0.1211 l -0.53515,-0.53515 c -0.16407,-0.16406 -0.16407,-0.42578 0,-0.58985 0.16015,-0.16015 0.42187,-0.16015 0.58203,0 l 0.53515,0.54297 c 0.16407,0.16016 0.16016,0.42188 0,0.58203 -0.0781,0.082 -0.18359,0.1211 -0.28906,0.1211"
       fill-opacity="1"
       fill-rule="nonzero"
       id="path17" />
    <path
       fill="#000000"
       d="m 248.10937,118.93359 c -1.29296,0 -2.34765,1.05469 -2.34765,2.35547 0,1.29688 1.05469,2.35547 2.34765,2.35547 1.29297,0 2.34766,-1.05859 2.34766,-2.35547 0,-1.30078 -1.05469,-2.35547 -2.34766,-2.35547 z m 0,5.53907 c -1.75,0 -3.17187,-1.42578 -3.17187,-3.1836 0,-1.7539 1.42187,-3.18359 3.17187,-3.18359 1.75,0 3.17188,1.42969 3.17188,3.18359 0,1.75782 -1.42188,3.1836 -3.17188,3.1836"
       fill-opacity="1"
       fill-rule="nonzero"
       id="path18" />
    <path
       fill="#000000"
       d="m 215.60937,83.121094 c -1.15234,0 -2.3125,0.109375 -3.46875,0.335937 l -70.61718,13.710938 c -9.78907,1.902343 -16.21094,11.445311 -14.31641,21.273441 l 11.83984,61.44531 c 1.67188,8.66797 9.26172,14.70703 17.7461,14.70703 1.13672,0 2.28515,-0.10938 3.4414,-0.33203 l 70.61329,-13.71485 c 4.74218,-0.92187 8.84375,-3.64062 11.54687,-7.66015 2.70703,-4.01563 3.69141,-8.85156 2.77344,-13.61328 L 233.32812,97.832031 c -0.91796,-4.761719 -3.6289,-8.878906 -7.6289,-11.59375 -3.02735,-2.054687 -6.51563,-3.117187 -10.08985,-3.117187 z m -58.8164,112.300776 c -8.8711,0 -16.8086,-6.3164 -18.5586,-15.3789 l -11.83984,-61.44531 c -1.98047,-10.27735 4.73828,-20.25391 14.97266,-22.242191 l 70.61328,-13.714844 c 4.96094,-0.960937 9.99609,0.07031 14.17969,2.910156 4.18359,2.839844 7.01562,7.144531 7.97656,12.121094 l 11.83984,61.445315 c 0.96094,4.97656 -0.0703,10.03515 -2.89844,14.23437 -2.82812,4.20313 -7.11718,7.04688 -12.07421,8.00781 l -0.0781,-0.40625 0.0781,0.40625 -70.61329,13.71485 c -1.20703,0.23437 -2.41015,0.34765 -3.59765,0.34765"
       fill-opacity="1"
       fill-rule="nonzero"
       id="path19" />
    <g
       clip-path="url(#ea33e108dc)"
       id="g20">
      <path
         fill="#000000"
         d="m 249.95703,92.417969 6.71484,-2.585938 -1.82031,-3.390625 z m 0,0"
         fill-opacity="1"
         fill-rule="nonzero"
         id="path20" />
    </g>
    <g
       clip-path="url(#a8d407694e)"
       id="g21">
      <path
         fill="#000000"
         d="m 242,75.410156 -4.58594,11.632813 8.15625,-9.175781 z m 0,0"
         fill-opacity="1"
         fill-rule="nonzero"
         id="path21" />
    </g>
    <g
       clip-path="url(#76cb655d82)"
       id="g22">
      <path
         fill="#000000"
         d="m 247.33203,179.35156 8.30469,6.76172 0.97265,-3.90234 z m 0,0"
         fill-opacity="1"
         fill-rule="nonzero"
         id="path22" />
    </g>
    <path
       fill="#000000"
       d="m 126.86719,174.95703 -7.02344,-0.1875 0.38281,3.74219 z m 0,0"
       fill-opacity="1"
       fill-rule="nonzero"
       id="path23" />
    <path
       fill="#000000"
       d="m 121.78906,193.09375 8.46485,-8.76953 -10.76953,5.21094 z m 0,0"
       fill-opacity="1"
       fill-rule="nonzero"
       id="path24" />
    <g
       clip-path="url(#60e86827a4)"
       id="g25">
      <path
         fill="#000000"
         d="m 124.18359,101.92188 -5.52734,-4.691411 -0.71094,2.625 z m 0,0"
         fill-opacity="1"
         fill-rule="nonzero"
         id="path25" />
    </g>
    <path
       fill="#000000"
       d="M 188.98828,158.66406 C 178.1875,156.23437 176.96094,147.3125 176.82422,145.54687 l 5.3789,-1.44921 c 0.61719,-0.16407 1.05079,-0.66016 1.13672,-1.29688 0.0859,-0.63281 -0.20312,-1.23047 -0.75,-1.55469 l -15.43359,-9.10937 c -0.45313,-0.26953 -0.98047,-0.33985 -1.48438,-0.20313 -0.50781,0.13672 -0.92968,0.46485 -1.1875,0.92188 l -8.82812,15.63672 c -0.3125,0.55468 -0.26563,1.21484 0.125,1.72265 0.39062,0.50782 1.01172,0.71875 1.62891,0.55469 l 5.39843,-1.45312 c 2.6836,8.8125 9.52735,14.67187 16.5586,14.67187 1.08593,0 2.17578,-0.14062 3.2539,-0.42969 2.51953,-0.67968 4.79297,-2.16015 6.57032,-4.29297 0.082,-0.0977 0.10937,-0.23437 0.0664,-0.35546 -0.0391,-0.125 -0.14062,-0.21485 -0.26953,-0.2461"
       fill-opacity="1"
       fill-rule="nonzero"
       id="path26" />
    <path
       fill="#000000"
       d="m 209.21094,158.97266 c 7.22656,-7.77735 8.28515,-18.41407 2.3789,-24.34766 -1.71484,-1.71875 -3.84765,-2.87891 -6.33984,-3.43359 -0.13672,-0.0352 -0.27344,0.0156 -0.36328,0.12109 -0.0898,0.10547 -0.11328,0.25391 -0.0586,0.37891 3.53125,8.61328 -4.36718,15.69531 -5.89843,16.96093 l -3.91407,-3.93359 c -0.45312,-0.45313 -1.09765,-0.58203 -1.6914,-0.33984 -0.58985,0.24218 -0.95703,0.79296 -0.96485,1.43359 l -0.14062,17.97266 c -0.004,0.52734 0.19531,1.01953 0.56641,1.39062 0.36718,0.37109 0.85156,0.57031 1.37109,0.57031 0.004,0 0.0117,0 0.0156,0 l 17.90235,-0.14453 c 0.64062,-0.004 1.18359,-0.375 1.42578,-0.96875 0.24219,-0.58984 0.11328,-1.23828 -0.33594,-1.6914 l -3.95312,-3.96875"
       fill-opacity="1"
       fill-rule="nonzero"
       id="path27" />
    <path
       fill="#000000"
       d="m 207.96875,125.40234 c 0.13281,-0.50781 0.0625,-1.03906 -0.20313,-1.49218 l -9.07421,-15.49219 c -0.32422,-0.55469 -0.91797,-0.83984 -1.55079,-0.75781 -0.6289,0.0898 -1.125,0.52734 -1.29296,1.14453 l -1.44532,5.41797 c -10.32422,-2.39063 -20.02734,2 -22.1914,10.10547 -0.67578,2.53125 -0.53125,5.24999 0.41797,7.86718 0.0469,0.12891 0.16406,0.22266 0.30468,0.23828 0.13282,0.0156 0.26953,-0.043 0.34766,-0.15625 4.75781,-6.95312 15.32422,-4.48046 17.34766,-3.92578 l -1.42188,5.33985 c -0.16406,0.62109 0.0469,1.24609 0.55078,1.64062 0.28125,0.21875 0.61328,0.32813 0.94531,0.32813 0.26172,0 0.52735,-0.0664 0.76954,-0.20704 l 15.57812,-8.85937 c 0.45313,-0.26172 0.78125,-0.68359 0.91797,-1.19141"
       fill-opacity="1"
       fill-rule="nonzero"
       id="path28" />
  </g>
  <g
     id="g63"
     transform="translate(-74.682202,-31.334745)">
    <g
       fill="#000000"
       fill-opacity="1"
       id="g31">
      <g
         transform="translate(81.436351,224.53678)"
         id="g30">
        <g
           id="g29">
          <path
             d="m 15.796875,-18.984375 c 0.65625,0 1.101563,0.07422 1.34375,0.21875 C 17.378906,-18.617188 17.5,-18.363281 17.5,-18 v 6.03125 c 0,0.355469 -0.164062,0.609375 -0.484375,0.765625 -0.3125,0.148437 -0.84375,0.21875 -1.59375,0.21875 -0.492187,0 -0.871094,-0.03125 -1.140625,-0.09375 -0.261719,-0.07031 -0.445312,-0.175781 -0.546875,-0.3125 -0.105469,-0.132813 -0.15625,-0.328125 -0.15625,-0.578125 0,-1.050781 -0.289063,-1.890625 -0.859375,-2.515625 -0.574219,-0.625 -1.386719,-0.9375 -2.4375,-0.9375 -1.460938,0 -2.570312,0.527344 -3.328125,1.578125 -0.75,1.042969 -1.125,2.546875 -1.125,4.515625 0,1.949219 0.398437,3.453125 1.203125,4.515625 0.800781,1.0625 1.9375,1.59375 3.40625,1.59375 0.90625,0 1.773438,-0.117188 2.609375,-0.359375 0.84375,-0.25 1.753906,-0.628906 2.734375,-1.140625 0.164062,-0.082031 0.328125,-0.125 0.484375,-0.125 0.488281,0 0.894531,0.4375 1.21875,1.3125 0.144531,0.398438 0.21875,0.75 0.21875,1.0625 0,0.53125 -0.242187,0.917969 -0.71875,1.15625 -2.242187,1.105469 -4.476563,1.65625 -6.703125,1.65625 -1.71875,0 -3.234375,-0.390625 -4.546875,-1.171875 -1.3125,-0.789063 -2.328125,-1.914063 -3.046875,-3.375 -0.710938,-1.457031 -1.0625,-3.164063 -1.0625,-5.125 0,-1.945313 0.347656,-3.648437 1.046875,-5.109375 0.695313,-1.46875 1.664063,-2.59375 2.90625,-3.375 1.25,-0.78125 2.65625,-1.171875 4.21875,-1.171875 1.832031,0 3.195313,0.65625 4.09375,1.96875 V -18 c 0,-0.351562 0.148437,-0.601562 0.453125,-0.75 0.300781,-0.15625 0.785156,-0.234375 1.453125,-0.234375 z m 0,0"
             id="path29" />
        </g>
      </g>
    </g>
    <g
       fill="#000000"
       fill-opacity="1"
       id="g34">
      <g
         transform="translate(100.71826,224.53678)"
         id="g33">
        <g
           id="g32">
          <path
             d="m 9.46875,-14.859375 c 2.300781,0 3.960938,0.5 4.984375,1.5 C 15.484375,-12.367188 16,-10.945312 16,-9.09375 v 4.53125 c 0,0.429688 0.08594,0.761719 0.265625,1 0.1875,0.230469 0.445313,0.34375 0.78125,0.34375 h 0.484375 c 0.25,0 0.441406,0.046875 0.578125,0.140625 0.132813,0.085937 0.234375,0.242187 0.296875,0.46875 0.07031,0.230469 0.109375,0.5625 0.109375,1 0,0.449219 -0.03906,0.789063 -0.109375,1.015625 -0.0625,0.230469 -0.164062,0.386719 -0.296875,0.46875 C 17.972656,-0.0390625 17.78125,0 17.53125,0 h -1.765625 c -0.648437,0 -1.21875,-0.128906 -1.71875,-0.390625 -0.492187,-0.269531 -0.871094,-0.695313 -1.140625,-1.28125 -0.824219,0.648437 -1.699219,1.148437 -2.625,1.5 C 9.363281,0.171875 8.421875,0.34375 7.453125,0.34375 6.265625,0.34375 5.238281,0.144531 4.375,-0.25 3.519531,-0.65625 2.863281,-1.234375 2.40625,-1.984375 1.957031,-2.734375 1.734375,-3.617188 1.734375,-4.640625 1.734375,-6.097656 2.25,-7.226562 3.28125,-8.03125 4.320312,-8.84375 5.773438,-9.25 7.640625,-9.25 c 1.382813,0 2.863281,0.15625 4.4375,0.46875 v -0.453125 c 0,-0.707031 -0.21875,-1.226563 -0.65625,-1.5625 -0.4375,-0.332031 -1.214844,-0.5 -2.328125,-0.5 -0.617188,0 -1.304688,0.07813 -2.0625,0.234375 -0.761719,0.148438 -1.511719,0.34375 -2.25,0.59375 -0.179688,0.05469 -0.335938,0.07813 -0.46875,0.07813 -0.261719,0 -0.496094,-0.09375 -0.703125,-0.28125 -0.199219,-0.195313 -0.382813,-0.523437 -0.546875,-0.984375 -0.15625,-0.457031 -0.234375,-0.832031 -0.234375,-1.125 0,-0.539062 0.238281,-0.898438 0.71875,-1.078125 0.9375,-0.332031 1.925781,-0.582031 2.96875,-0.75 1.050781,-0.164063 2.035156,-0.25 2.953125,-0.25 z m -1.4375,8.84375 c -0.742188,0 -1.304688,0.132813 -1.6875,0.390625 -0.375,0.261719 -0.5625,0.640625 -0.5625,1.140625 0,0.5 0.179688,0.882813 0.546875,1.140625 0.375,0.25 0.914063,0.375 1.625,0.375 0.71875,0 1.429687,-0.140625 2.140625,-0.421875 0.707031,-0.289063 1.367188,-0.691406 1.984375,-1.203125 v -1 C 10.691406,-5.875 9.34375,-6.015625 8.03125,-6.015625 Z m 0,0"
             id="path31" />
        </g>
      </g>
    </g>
    <g
       fill="#000000"
       fill-opacity="1"
       id="g37">
      <g
         transform="translate(120.00016,224.53678)"
         id="g36">
        <g
           id="g35">
          <path
             d="m 14.5625,-14.859375 c 0.882812,0 1.722656,0.292969 2.515625,0.875 0.457031,0.335937 0.6875,0.777344 0.6875,1.328125 0,0.34375 -0.09375,0.75 -0.28125,1.21875 -0.1875,0.46875 -0.402344,0.828125 -0.640625,1.078125 C 16.613281,-10.117188 16.367188,-10 16.109375,-10 c -0.15625,0 -0.320313,-0.03906 -0.484375,-0.125 -0.585938,-0.332031 -1.1875,-0.5 -1.8125,-0.5 -0.8125,0 -1.570312,0.261719 -2.265625,0.78125 -0.699219,0.511719 -1.261719,1.21875 -1.6875,2.125 -0.429687,0.898438 -0.640625,1.898438 -0.640625,3 v 1.5 h 4.515625 c 0.25,0 0.441406,0.046875 0.578125,0.140625 0.132812,0.085937 0.234375,0.242187 0.296875,0.46875 0.07031,0.230469 0.109375,0.5625 0.109375,1 0,0.449219 -0.03906,0.789063 -0.109375,1.015625 -0.0625,0.230469 -0.164063,0.386719 -0.296875,0.46875 C 14.175781,-0.0390625 13.984375,0 13.734375,0 h -10.75 C 2.734375,0 2.539062,-0.0390625 2.40625,-0.125 2.269531,-0.207031 2.164062,-0.363281 2.09375,-0.59375 2.03125,-0.820312 2,-1.160156 2,-1.609375 c 0,-0.4375 0.03125,-0.769531 0.09375,-1 0.070312,-0.226563 0.175781,-0.382813 0.3125,-0.46875 0.132812,-0.09375 0.328125,-0.140625 0.578125,-0.140625 h 2.3125 v -8.078125 h -1.84375 c -0.25,0 -0.445313,-0.03906 -0.578125,-0.125 -0.136719,-0.08203 -0.242188,-0.238281 -0.3125,-0.46875 -0.0625,-0.226563 -0.09375,-0.5625 -0.09375,-1 0,-0.445313 0.03125,-0.785156 0.09375,-1.015625 0.070312,-0.226562 0.175781,-0.382812 0.3125,-0.46875 0.132812,-0.09375 0.328125,-0.140625 0.578125,-0.140625 h 4.3125 c 0.351563,0 0.601563,0.07813 0.75,0.234375 0.15625,0.148438 0.234375,0.398438 0.234375,0.75 v 3.421875 c 0.78125,-1.519531 1.679688,-2.691406 2.703125,-3.515625 1.019531,-0.820312 2.054687,-1.234375 3.109375,-1.234375 z m 0,0"
             id="path34" />
        </g>
      </g>
    </g>
    <g
       fill="#000000"
       fill-opacity="1"
       id="g40">
      <g
         transform="translate(139.28207,224.53678)"
         id="g39">
        <g
           id="g38">
          <path
             d="m 5.875,-20.609375 c 0.351562,0 0.601562,0.07813 0.75,0.234375 0.15625,0.148438 0.234375,0.398438 0.234375,0.75 V -13 c 0.539063,-0.601562 1.160156,-1.0625 1.859375,-1.375 0.695312,-0.320312 1.457031,-0.484375 2.28125,-0.484375 1.363281,0 2.5625,0.339844 3.59375,1.015625 1.03125,0.667969 1.816406,1.578125 2.359375,2.734375 0.539063,1.148437 0.8125,2.433594 0.8125,3.859375 0,1.417969 -0.273437,2.703125 -0.8125,3.859375 -0.542969,1.148437 -1.328125,2.058594 -2.359375,2.734375 -1.03125,0.6640625 -2.230469,1 -3.59375,1 -1,0 -1.914062,-0.230469 -2.734375,-0.6875 -0.8125,-0.46875 -1.492187,-1.125 -2.03125,-1.96875 v 1.328125 C 6.234375,-0.628906 6.15625,-0.375 6,-0.21875 5.851562,-0.0703125 5.601562,0 5.25,0 H 1.734375 C 1.472656,0 1.273438,-0.0390625 1.140625,-0.125 1.003906,-0.21875 0.898438,-0.378906 0.828125,-0.609375 0.765625,-0.835938 0.734375,-1.175781 0.734375,-1.625 c 0,-0.4375 0.03125,-0.769531 0.09375,-1 0.070313,-0.226562 0.175781,-0.382812 0.3125,-0.46875 0.132813,-0.082031 0.332031,-0.125 0.59375,-0.125 H 2.9375 V -17.390625 H 1.40625 c -0.25,0 -0.445312,-0.03906 -0.578125,-0.125 -0.136719,-0.08203 -0.242187,-0.238281 -0.3125,-0.46875 -0.0625,-0.226563 -0.09375,-0.5625 -0.09375,-1 0,-0.445313 0.03125,-0.785156 0.09375,-1.015625 0.070313,-0.226562 0.175781,-0.382812 0.3125,-0.46875 0.132813,-0.09375 0.328125,-0.140625 0.578125,-0.140625 z m 4.5,9.3125 c -0.679688,0 -1.289062,0.15625 -1.828125,0.46875 -0.542969,0.3125 -0.980469,0.777344 -1.3125,1.390625 C 6.910156,-8.820312 6.75,-8.09375 6.75,-7.25 c 0,0.835938 0.160156,1.558594 0.484375,2.171875 0.332031,0.617187 0.769531,1.078125 1.3125,1.390625 0.539063,0.3125 1.148437,0.46875 1.828125,0.46875 0.644531,0 1.207031,-0.160156 1.6875,-0.484375 0.476562,-0.332031 0.847656,-0.800781 1.109375,-1.40625 C 13.429688,-5.722656 13.5625,-6.4375 13.5625,-7.25 c 0,-0.820312 -0.132812,-1.535156 -0.390625,-2.140625 -0.261719,-0.613281 -0.632813,-1.082031 -1.109375,-1.40625 -0.480469,-0.332031 -1.042969,-0.5 -1.6875,-0.5 z m 0,0"
             id="path37" />
        </g>
      </g>
    </g>
    <g
       fill="#000000"
       fill-opacity="1"
       id="g43">
      <g
         transform="translate(158.56397,224.53678)"
         id="g42">
        <g
           id="g41">
          <path
             d="m 9.640625,-14.859375 c 1.59375,0 2.984375,0.328125 4.171875,0.984375 1.195312,0.648438 2.117188,1.546875 2.765625,2.703125 0.644531,1.148437 0.96875,2.453125 0.96875,3.921875 0,1.460938 -0.324219,2.765625 -0.96875,3.921875 C 15.929688,-2.179688 15.007812,-1.28125 13.8125,-0.625 12.625,0.0195312 11.234375,0.34375 9.640625,0.34375 c -1.59375,0 -2.992187,-0.3242188 -4.1875,-0.96875 -1.1875,-0.65625 -2.105469,-1.554688 -2.75,-2.703125 C 2.066406,-4.484375 1.75,-5.789062 1.75,-7.25 c 0,-1.46875 0.316406,-2.773438 0.953125,-3.921875 0.644531,-1.15625 1.5625,-2.054687 2.75,-2.703125 1.195313,-0.65625 2.59375,-0.984375 4.1875,-0.984375 z m 0,3.5625 c -0.75,0 -1.40625,0.167969 -1.96875,0.5 -0.554687,0.324219 -0.980469,0.792969 -1.28125,1.40625 -0.292969,0.605469 -0.4375,1.320313 -0.4375,2.140625 0,0.8125 0.144531,1.527344 0.4375,2.140625 0.300781,0.605469 0.726563,1.074219 1.28125,1.40625 0.5625,0.324219 1.21875,0.484375 1.96875,0.484375 0.757813,0 1.414063,-0.160156 1.96875,-0.484375 0.550781,-0.332031 0.976563,-0.800781 1.28125,-1.40625 C 13.191406,-5.722656 13.34375,-6.4375 13.34375,-7.25 c 0,-0.820312 -0.152344,-1.535156 -0.453125,-2.140625 -0.304687,-0.613281 -0.730469,-1.082031 -1.28125,-1.40625 -0.554687,-0.332031 -1.210937,-0.5 -1.96875,-0.5 z m 0,0"
             id="path40" />
        </g>
      </g>
    </g>
    <g
       fill="#000000"
       fill-opacity="1"
       id="g46">
      <g
         transform="translate(177.84588,224.53678)"
         id="g45">
        <g
           id="g44">
          <path
             d="m 11.890625,-14.859375 c 0.957031,0 1.789063,0.210937 2.5,0.625 0.71875,0.417969 1.269531,1.011719 1.65625,1.78125 0.394531,0.773437 0.59375,1.679687 0.59375,2.71875 v 6.515625 h 1.203125 c 0.25,0 0.441406,0.046875 0.578125,0.140625 0.132813,0.085937 0.234375,0.242187 0.296875,0.46875 0.07031,0.230469 0.109375,0.5625 0.109375,1 0,0.449219 -0.03906,0.789063 -0.109375,1.015625 -0.0625,0.230469 -0.164062,0.386719 -0.296875,0.46875 C 18.285156,-0.0390625 18.09375,0 17.84375,0 h -5.875 c -0.25,0 -0.445312,-0.0390625 -0.578125,-0.125 -0.136719,-0.082031 -0.242187,-0.238281 -0.3125,-0.46875 -0.0625,-0.226562 -0.09375,-0.566406 -0.09375,-1.015625 0,-0.4375 0.03125,-0.769531 0.09375,-1 0.07031,-0.226563 0.175781,-0.382813 0.3125,-0.46875 0.132813,-0.09375 0.328125,-0.140625 0.578125,-0.140625 h 0.734375 V -8.8125 c 0,-0.8125 -0.140625,-1.425781 -0.421875,-1.84375 -0.28125,-0.425781 -0.75,-0.640625 -1.40625,-0.640625 -0.617188,0 -1.195312,0.257813 -1.734375,0.765625 -0.542969,0.511719 -0.980469,1.195312 -1.3125,2.046875 -0.324219,0.84375 -0.484375,1.746094 -0.484375,2.703125 v 2.5625 h 0.734375 c 0.25,0 0.441406,0.046875 0.578125,0.140625 0.132812,0.085937 0.234375,0.242187 0.296875,0.46875 0.070313,0.230469 0.109375,0.5625 0.109375,1 0,0.449219 -0.039062,0.789063 -0.109375,1.015625 C 8.890625,-0.363281 8.789062,-0.207031 8.65625,-0.125 8.519531,-0.0390625 8.328125,0 8.078125,0 h -5.875 c -0.25,0 -0.449219,-0.0390625 -0.59375,-0.125 -0.136719,-0.082031 -0.242187,-0.238281 -0.3125,-0.46875 -0.0625,-0.226562 -0.09375,-0.566406 -0.09375,-1.015625 0,-0.4375 0.03125,-0.769531 0.09375,-1 0.070313,-0.226563 0.175781,-0.382813 0.3125,-0.46875 0.144531,-0.09375 0.34375,-0.140625 0.59375,-0.140625 H 3.40625 v -8.078125 H 1.890625 c -0.25,0 -0.449219,-0.03906 -0.59375,-0.125 -0.136719,-0.08203 -0.242187,-0.238281 -0.3125,-0.46875 -0.0625,-0.226563 -0.09375,-0.5625 -0.09375,-1 0,-0.445313 0.03125,-0.785156 0.09375,-1.015625 0.070313,-0.226562 0.175781,-0.382812 0.3125,-0.46875 0.144531,-0.09375 0.34375,-0.140625 0.59375,-0.140625 H 5.71875 c 0.351562,0 0.601562,0.07813 0.75,0.234375 0.15625,0.148438 0.234375,0.398438 0.234375,0.75 V -11.25 c 1.382813,-2.40625 3.113281,-3.609375 5.1875,-3.609375 z m 0,0"
             id="path43" />
        </g>
      </g>
    </g>
    <g
       fill="#000000"
       fill-opacity="1"
       id="g49">
      <g
         transform="translate(197.12778,224.53678)"
         id="g48">
        <g
           id="g47">
          <path
             d="m 15.625,-10.921875 c 0.25,0 0.441406,0.04687 0.578125,0.140625 0.144531,0.09375 0.25,0.273438 0.3125,0.53125 0.07031,0.25 0.109375,0.621094 0.109375,1.109375 0,0.492187 -0.03906,0.859375 -0.109375,1.109375 -0.0625,0.25 -0.167969,0.421875 -0.3125,0.515625 -0.136719,0.085937 -0.328125,0.125 -0.578125,0.125 H 3.65625 c -0.25,0 -0.445312,-0.039063 -0.578125,-0.125 -0.136719,-0.09375 -0.242187,-0.265625 -0.3125,-0.515625 -0.0625,-0.25 -0.09375,-0.617188 -0.09375,-1.109375 0,-0.488281 0.03125,-0.859375 0.09375,-1.109375 0.070313,-0.257812 0.175781,-0.4375 0.3125,-0.53125 0.132813,-0.09375 0.328125,-0.140625 0.578125,-0.140625 z m 0,0"
             id="path46" />
        </g>
      </g>
    </g>
    <g
       fill="#000000"
       fill-opacity="1"
       id="g52">
      <g
         transform="translate(216.40969,224.53678)"
         id="g51">
        <g
           id="g50">
          <path
             d="m 18.609375,-18.640625 c 0.25,0 0.441406,0.04687 0.578125,0.140625 0.144531,0.08594 0.25,0.242188 0.3125,0.46875 0.07031,0.230469 0.109375,0.5625 0.109375,1 0,0.4375 -0.03906,0.777344 -0.109375,1.015625 -0.0625,0.230469 -0.167969,0.386719 -0.3125,0.46875 -0.136719,0.08594 -0.328125,0.125 -0.578125,0.125 h -0.875 l -1.578125,14.75 C 16.125,-0.410156 16.046875,-0.207031 15.921875,-0.0625 15.804688,0.0820312 15.617188,0.1875 15.359375,0.25 15.097656,0.3125 14.726562,0.34375 14.25,0.34375 c -0.6875,0 -1.1875,-0.078125 -1.5,-0.234375 -0.3125,-0.15625 -0.53125,-0.414063 -0.65625,-0.78125 L 9.578125,-8.078125 7.03125,-0.671875 C 6.90625,-0.304688 6.6875,-0.046875 6.375,0.109375 6.0625,0.265625 5.554688,0.34375 4.859375,0.34375 4.367188,0.34375 3.992188,0.3125 3.734375,0.25 3.484375,0.1875 3.300781,0.0820312 3.1875,-0.0625 3.082031,-0.207031 3.015625,-0.410156 2.984375,-0.671875 l -1.53125,-14.75 h -0.78125 c -0.25,0 -0.445313,-0.03906 -0.578125,-0.125 -0.1328125,-0.08203 -0.234375,-0.238281 -0.296875,-0.46875 -0.070313,-0.238281 -0.109375,-0.578125 -0.109375,-1.015625 0,-0.4375 0.039062,-0.769531 0.109375,-1 0.0625,-0.226562 0.1640625,-0.382812 0.296875,-0.46875 0.132812,-0.09375 0.328125,-0.140625 0.578125,-0.140625 h 6.1875 c 0.25,0 0.441406,0.04687 0.578125,0.140625 0.144531,0.08594 0.25,0.242188 0.3125,0.46875 0.070312,0.230469 0.109375,0.5625 0.109375,1 0,0.4375 -0.039063,0.777344 -0.109375,1.015625 -0.0625,0.230469 -0.167969,0.386719 -0.3125,0.46875 -0.136719,0.08594 -0.328125,0.125 -0.578125,0.125 H 5.03125 L 5.859375,-6.25 8.15625,-12.96875 c 0.070312,-0.25 0.210938,-0.4375 0.421875,-0.5625 0.207031,-0.125 0.554687,-0.1875 1.046875,-0.1875 0.53125,0 0.910156,0.05469 1.140625,0.15625 0.226563,0.09375 0.375,0.257812 0.4375,0.484375 l 2.3125,6.828125 0.84375,-9.171875 h -1.625 c -0.25,0 -0.445313,-0.03906 -0.578125,-0.125 -0.136719,-0.08203 -0.242188,-0.238281 -0.3125,-0.46875 -0.0625,-0.238281 -0.09375,-0.578125 -0.09375,-1.015625 0,-0.4375 0.03125,-0.769531 0.09375,-1 0.07031,-0.226562 0.175781,-0.382812 0.3125,-0.46875 0.132812,-0.09375 0.328125,-0.140625 0.578125,-0.140625 z m 0,0"
             id="path49" />
        </g>
      </g>
    </g>
    <g
       fill="#000000"
       fill-opacity="1"
       id="g55">
      <g
         transform="translate(235.69159,224.53678)"
         id="g54">
        <g
           id="g53">
          <path
             d="m 10.84375,-14.515625 c 0.351562,0 0.601562,0.07813 0.75,0.234375 0.15625,0.148438 0.234375,0.398438 0.234375,0.75 v 10.3125 H 16.25 c 0.25,0 0.441406,0.046875 0.578125,0.140625 0.132813,0.085937 0.234375,0.242187 0.296875,0.46875 0.07031,0.230469 0.109375,0.5625 0.109375,1 0,0.449219 -0.03906,0.789063 -0.109375,1.015625 -0.0625,0.230469 -0.164062,0.386719 -0.296875,0.46875 C 16.691406,-0.0390625 16.5,0 16.25,0 H 3.609375 C 3.359375,0 3.164062,-0.0390625 3.03125,-0.125 2.894531,-0.207031 2.789062,-0.363281 2.71875,-0.59375 2.65625,-0.820312 2.625,-1.160156 2.625,-1.609375 c 0,-0.4375 0.03125,-0.769531 0.09375,-1 0.070312,-0.226563 0.175781,-0.382813 0.3125,-0.46875 0.132812,-0.09375 0.328125,-0.140625 0.578125,-0.140625 H 7.90625 v -8.078125 H 4.5625 c -0.261719,0 -0.460938,-0.03906 -0.59375,-0.125 -0.136719,-0.08203 -0.242188,-0.238281 -0.3125,-0.46875 -0.0625,-0.226563 -0.09375,-0.5625 -0.09375,-1 0,-0.445313 0.03125,-0.785156 0.09375,-1.015625 0.070312,-0.226562 0.175781,-0.382812 0.3125,-0.46875 0.132812,-0.09375 0.332031,-0.140625 0.59375,-0.140625 z M 9.8125,-21.40625 c 0.75,0 1.269531,0.07813 1.5625,0.234375 0.300781,0.148437 0.453125,0.398437 0.453125,0.75 v 2.578125 c 0,0.355469 -0.140625,0.609375 -0.421875,0.765625 -0.273438,0.148437 -0.777344,0.21875 -1.515625,0.21875 -0.730469,0 -1.246094,-0.07031 -1.546875,-0.21875 -0.292969,-0.15625 -0.4375,-0.410156 -0.4375,-0.765625 v -2.578125 c 0,-0.363281 0.132812,-0.617187 0.40625,-0.765625 0.269531,-0.144531 0.769531,-0.21875 1.5,-0.21875 z m 0,0"
             id="path52" />
        </g>
      </g>
    </g>
    <g
       fill="#000000"
       fill-opacity="1"
       id="g58">
      <g
         transform="translate(254.9735,224.53678)"
         id="g57">
        <g
           id="g56">
          <path
             d="m 14.234375,-14.859375 c 0.664063,0 1.140625,0.07813 1.421875,0.234375 0.289062,0.148438 0.4375,0.398438 0.4375,0.75 v 3.3125 c 0,0.367188 -0.117188,0.625 -0.34375,0.78125 -0.230469,0.148438 -0.601562,0.21875 -1.109375,0.21875 -0.554687,0 -0.933594,-0.109375 -1.140625,-0.328125 -0.625,-0.664063 -1.339844,-1.132813 -2.140625,-1.40625 -0.792969,-0.28125 -1.710937,-0.421875 -2.75,-0.421875 -0.617187,0 -1.101563,0.109375 -1.453125,0.328125 -0.355469,0.21875 -0.53125,0.511719 -0.53125,0.875 0,0.449219 0.390625,0.765625 1.171875,0.953125 0.40625,0.105469 1.097656,0.203125 2.078125,0.296875 0.976562,0.117187 1.789062,0.230469 2.4375,0.34375 0.644531,0.117187 1.253906,0.289063 1.828125,0.515625 0.832031,0.34375 1.484375,0.828125 1.953125,1.453125 0.476562,0.617187 0.71875,1.429687 0.71875,2.4375 0,1 -0.246094,1.867187 -0.734375,2.59375 C 15.585938,-1.191406 14.875,-0.628906 13.9375,-0.234375 13,0.148438 11.875,0.34375 10.5625,0.34375 9.101562,0.34375 7.75,-0.0234375 6.5,-0.765625 v 0.125 c 0,0.355469 -0.152344,0.6054688 -0.453125,0.75 C 5.742188,0.265625 5.257812,0.34375 4.59375,0.34375 3.914062,0.34375 3.4375,0.265625 3.15625,0.109375 2.875,-0.0351562 2.734375,-0.285156 2.734375,-0.640625 v -3.5 c 0,-0.351563 0.117187,-0.609375 0.359375,-0.765625 0.25,-0.15625 0.628906,-0.234375 1.140625,-0.234375 0.644531,0 1.082031,0.148437 1.3125,0.4375 0.519531,0.667969 1.1875,1.152344 2,1.453125 0.820313,0.304688 1.722656,0.453125 2.703125,0.453125 1.664062,0 2.5,-0.429687 2.5,-1.296875 0,-0.269531 -0.121094,-0.484375 -0.359375,-0.640625 C 12.160156,-4.890625 11.816406,-5.019531 11.359375,-5.125 11.097656,-5.175781 10.488281,-5.269531 9.53125,-5.40625 8.476562,-5.53125 7.570312,-5.671875 6.8125,-5.828125 6.050781,-5.992188 5.363281,-6.25 4.75,-6.59375 3.300781,-7.394531 2.578125,-8.65625 2.578125,-10.375 c 0,-0.90625 0.242187,-1.695312 0.734375,-2.375 0.488281,-0.6875 1.164062,-1.207031 2.03125,-1.5625 0.863281,-0.363281 1.835938,-0.546875 2.921875,-0.546875 1.582031,0 2.984375,0.382813 4.203125,1.140625 V -13.875 c 0,-0.351562 0.128906,-0.601562 0.390625,-0.75 0.257813,-0.15625 0.71875,-0.234375 1.375,-0.234375 z m 0,0"
             id="path55" />
        </g>
      </g>
    </g>
    <g
       fill="#000000"
       fill-opacity="1"
       id="g61">
      <g
         transform="translate(274.2554,224.53678)"
         id="g60">
        <g
           id="g59">
          <path
             d="m 9.859375,-14.859375 c 1.59375,0 2.945313,0.34375 4.0625,1.03125 1.125,0.6875 1.972656,1.640625 2.546875,2.859375 0.570312,1.21875 0.859375,2.617188 0.859375,4.1875 0,0.355469 -0.07813,0.605469 -0.234375,0.75 -0.148438,0.148438 -0.398438,0.21875 -0.75,0.21875 H 6.25 c 0.195312,0.835938 0.625,1.476562 1.28125,1.921875 0.65625,0.449219 1.484375,0.671875 2.484375,0.671875 1.625,0 3.382813,-0.285156 5.28125,-0.859375 0.125,-0.039063 0.25,-0.0625 0.375,-0.0625 0.226563,0 0.425781,0.105469 0.59375,0.3125 0.175781,0.210937 0.332031,0.5625 0.46875,1.0625 0.101563,0.386719 0.15625,0.714844 0.15625,0.984375 0,0.28125 -0.0625,0.5 -0.1875,0.65625 -0.117187,0.148438 -0.308594,0.265625 -0.578125,0.359375 -1.054688,0.34375 -2.125,0.617187 -3.21875,0.8125 C 11.820312,0.242188 10.753906,0.34375 9.703125,0.34375 8.117188,0.34375 6.75,0.0195312 5.59375,-0.625 4.4375,-1.28125 3.554688,-2.179688 2.953125,-3.328125 2.359375,-4.472656 2.0625,-5.78125 2.0625,-7.25 c 0,-1.46875 0.3125,-2.773438 0.9375,-3.921875 0.625,-1.15625 1.53125,-2.054687 2.71875,-2.703125 1.1875,-0.65625 2.566406,-0.984375 4.140625,-0.984375 z m 0,3.5625 c -1.917969,0 -3.101563,0.808594 -3.546875,2.421875 h 6.921875 c -0.1875,-0.757812 -0.574219,-1.351562 -1.15625,-1.78125 -0.574219,-0.425781 -1.3125,-0.640625 -2.21875,-0.640625 z m 0,0"
             id="path58" />
        </g>
      </g>
    </g>
  </g>
</svg>
