<?xml version="1.0" encoding="UTF-8" standalone="no"?>
<svg
   width="300"
   zoomAndPan="magnify"
   viewBox="0 0 225.00006 225.00006"
   height="300"
   preserveAspectRatio="xMidYMid"
   version="1.0"
   id="svg61"
   sodipodi:docname="2.svg"
   inkscape:version="1.3 (0e150ed, 2023-07-21)"
   xmlns:inkscape="http://www.inkscape.org/namespaces/inkscape"
   xmlns:sodipodi="http://sodipodi.sourceforge.net/DTD/sodipodi-0.dtd"
   xmlns="http://www.w3.org/2000/svg"
   xmlns:svg="http://www.w3.org/2000/svg">
  <sodipodi:namedview
     id="namedview61"
     pagecolor="#ffffff"
     bordercolor="#000000"
     borderopacity="0.25"
     inkscape:showpageshadow="2"
     inkscape:pageopacity="0.0"
     inkscape:pagecheckerboard="0"
     inkscape:deskcolor="#d1d1d1"
     inkscape:zoom="0.55103874"
     inkscape:cx="78.034441"
     inkscape:cy="136.10658"
     inkscape:window-width="1312"
     inkscape:window-height="449"
     inkscape:window-x="0"
     inkscape:window-y="38"
     inkscape:window-maximized="0"
     inkscape:current-layer="svg61" />
  <defs
     id="defs5">
    <g
       id="g1" />
    <clipPath
       id="345d9e1c2b">
      <path
         d="M 122.57031,77.71875 H 250 V 199.74609 H 122.57031 Z m 0,0"
         clip-rule="nonzero"
         id="path1" />
    </clipPath>
    <clipPath
       id="05e1fd2a32">
      <path
         d="m 250.02734,86.390625 h 6.66407 v 6.070313 h -6.66407 z m 0,0"
         clip-rule="nonzero"
         id="path2" />
    </clipPath>
    <clipPath
       id="7915c49b97">
      <path
         d="m 237,75.40625 h 9 V 88 h -9 z m 0,0"
         clip-rule="nonzero"
         id="path3" />
    </clipPath>
    <clipPath
       id="c21df91a5b">
      <path
         d="m 247.42578,179.16406 h 9.26563 V 186 h -9.26563 z m 0,0"
         clip-rule="nonzero"
         id="path4" />
    </clipPath>
    <clipPath
       id="f7f6cba8f1">
      <path
         d="M 117.94141,97 H 125 v 5 h -7.05859 z m 0,0"
         clip-rule="nonzero"
         id="path5" />
    </clipPath>
  </defs>
  <g
     id="g3"
     transform="translate(-75.18848,-39.779098)">
    <g
       clip-path="url(#345d9e1c2b)"
       id="g6">
      <path
         fill="#000000"
         d="m 207.8125,78.628906 c -2.28906,0 -4.58203,0.445313 -6.76953,1.335938 l -66.22656,26.921876 c -9.17969,3.73437 -13.61328,14.23828 -9.88282,23.41797 l 23.33985,57.40234 c 1.80468,4.44531 5.23828,7.92188 9.66015,9.78906 4.42188,1.86328 9.30469,1.89844 13.75391,0.0898 l 66.22656,-26.92578 c 4.44922,-1.8086 7.92578,-5.23829 9.78906,-9.66016 1.86719,-4.42188 1.89844,-9.30859 0.0898,-13.75391 L 224.45703,89.84375 c -1.80469,-4.445312 -5.23828,-7.925781 -9.66016,-9.789062 -2.25,-0.949219 -4.61718,-1.425782 -6.98437,-1.425782 z M 164.91797,199.74609 c -2.47656,0 -4.95313,-0.49609 -7.3086,-1.48828 -4.625,-1.95312 -8.21093,-5.58984 -10.10546,-10.23828 l -23.33594,-57.40625 c -3.90234,-9.60156 0.73437,-20.58984 10.33594,-24.49219 l 66.22656,-26.925778 c 4.65234,-1.890624 9.76172,-1.855468 14.38672,0.09766 4.6289,1.949219 8.21875,5.585937 10.10547,10.238281 l 23.33984,57.402337 c 1.89062,4.65235 1.85547,9.76172 -0.0937,14.38672 -1.95313,4.625 -5.58984,8.21485 -10.24219,10.10547 l -0.15625,-0.38281 0.15625,0.38281 L 172,198.35156 c -2.28906,0.92969 -4.6875,1.39453 -7.08203,1.39453"
         fill-opacity="1"
         fill-rule="nonzero"
         id="path6" />
    </g>
    <path
       fill="#000000"
       d="m 148.36328,85.78125 c -0.21094,0 -0.39062,-0.15625 -0.41406,-0.371094 -0.0195,-0.226562 0.14453,-0.429687 0.37109,-0.453125 l 0.22656,-0.01953 c 0.22657,-0.02344 0.42579,0.144531 0.44922,0.375 0.0195,0.226562 -0.14843,0.425781 -0.375,0.449219 l -0.21875,0.01953 c -0.0117,0 -0.0273,0 -0.0391,0 z m -3.47266,0.628906 c -0.18359,0 -0.35156,-0.125 -0.39843,-0.3125 -0.0586,-0.21875 0.0742,-0.445312 0.29297,-0.503906 L 145,85.539062 c 0.22266,-0.05469 0.44922,0.07813 0.50391,0.300782 0.0586,0.21875 -0.0781,0.445312 -0.29688,0.5 l -0.21094,0.05469 c -0.0352,0.0078 -0.0703,0.01563 -0.10547,0.01563 z m -3.32812,1.164063 c -0.16016,0 -0.3125,-0.09375 -0.37891,-0.25 -0.0937,-0.210938 0,-0.453125 0.21094,-0.546875 l 0.20703,-0.08594 c 0.21094,-0.08984 0.45313,0.0078 0.54297,0.214844 0.0898,0.210938 -0.008,0.453125 -0.21875,0.542969 l -0.19531,0.08984 c -0.0547,0.02344 -0.11328,0.03516 -0.16797,0.03516 z m -3.10547,1.667969 c -0.13672,0 -0.26953,-0.06641 -0.34766,-0.1875 -0.125,-0.191407 -0.0703,-0.449219 0.1211,-0.574219 l 0.1914,-0.121094 c 0.19141,-0.121094 0.44922,-0.0625 0.57032,0.128906 0.12109,0.195313 0.0625,0.453125 -0.12891,0.570313 l -0.18359,0.117187 c -0.0703,0.04687 -0.14844,0.06641 -0.22266,0.06641 z m -2.80859,2.136718 c -0.11719,0 -0.23047,-0.04687 -0.3125,-0.140625 -0.15235,-0.167969 -0.13672,-0.429687 0.0352,-0.582031 l 0.16797,-0.152344 c 0.17188,-0.148437 0.4336,-0.128906 0.58594,0.04297 0.14844,0.171875 0.13281,0.433594 -0.043,0.582031 l -0.16016,0.144532 c -0.0781,0.07031 -0.17968,0.105468 -0.27343,0.105468 z m -2.44532,2.542969 c -0.0937,0 -0.1875,-0.03125 -0.26562,-0.09375 -0.17578,-0.144531 -0.20313,-0.40625 -0.0547,-0.582031 l 0.14453,-0.175782 c 0.14453,-0.171874 0.40625,-0.195312 0.58203,-0.04687 0.17579,0.144531 0.19532,0.40625 0.0508,0.582031 l -0.13672,0.164062 c -0.082,0.101563 -0.20313,0.152344 -0.32032,0.152344 z m -2.02343,2.894531 c -0.0703,0 -0.14453,-0.01953 -0.21094,-0.05859 -0.19531,-0.117187 -0.26172,-0.371093 -0.14453,-0.566406 l 0.11328,-0.195312 c 0.11719,-0.195313 0.375,-0.257813 0.57031,-0.140625 0.19531,0.117187 0.25781,0.371093 0.14063,0.570312 l -0.10938,0.183594 c -0.0781,0.132813 -0.21875,0.207031 -0.35937,0.207031"
       fill-opacity="1"
       fill-rule="nonzero"
       id="path7" />
    <path
       fill="#000000"
       d="m 239.1875,184.85937 c -0.0977,0 -0.19141,-0.0312 -0.26953,-0.10156 -0.17578,-0.14844 -0.19531,-0.41015 -0.0469,-0.58203 l 0.14453,-0.16406 c 0.14454,-0.17578 0.40625,-0.19531 0.58204,-0.0508 0.17187,0.14843 0.19531,0.41015 0.0469,0.58593 L 239.5,184.71484 c -0.082,0.0977 -0.19531,0.14453 -0.3125,0.14453 z m -2.50391,2.48829 c -0.11718,0 -0.23437,-0.0508 -0.3164,-0.14454 -0.14844,-0.17578 -0.125,-0.4375 0.0469,-0.58593 l 0.16406,-0.14063 c 0.17579,-0.14844 0.4336,-0.13281 0.58594,0.043 0.14844,0.17188 0.12891,0.43359 -0.043,0.58203 l -0.16797,0.14844 c -0.0781,0.0625 -0.17578,0.0977 -0.26953,0.0977 z m -2.85937,2.0664 c -0.14063,0 -0.27735,-0.0703 -0.35547,-0.19922 -0.11719,-0.19531 -0.0547,-0.44922 0.14062,-0.5664 l 0.1836,-0.11328 c 0.19531,-0.1211 0.44922,-0.0625 0.57031,0.1289 0.12109,0.19531 0.0625,0.44922 -0.12891,0.57422 l -0.19531,0.11719 c -0.0664,0.0391 -0.14062,0.0586 -0.21484,0.0586 z m -3.14453,1.59766 c -0.16407,0 -0.31641,-0.0977 -0.38282,-0.25781 -0.0859,-0.21094 0.0156,-0.44922 0.22657,-0.53907 l 0.19531,-0.082 c 0.21094,-0.0898 0.45703,0.008 0.54297,0.21875 0.0898,0.21094 -0.008,0.45313 -0.21875,0.54297 l -0.20703,0.0859 c -0.0508,0.0234 -0.10547,0.0312 -0.15625,0.0312 z m -3.35547,1.08594 c -0.1875,0 -0.35938,-0.12891 -0.40235,-0.31641 -0.0547,-0.22266 0.082,-0.44922 0.30469,-0.5 l 0.21094,-0.0547 c 0.22266,-0.0508 0.44531,0.082 0.5,0.30469 0.0547,0.22266 -0.0781,0.44531 -0.30078,0.5 l -0.21875,0.0547 c -0.0312,0.008 -0.0625,0.0117 -0.0937,0.0117 z m -3.48828,0.54296 c -0.21485,0 -0.39453,-0.16406 -0.41407,-0.38281 -0.0156,-0.22656 0.15625,-0.42578 0.38282,-0.44531 l 0.21875,-0.0156 c 0.22656,-0.0195 0.42578,0.14844 0.44531,0.375 0.0195,0.23047 -0.14844,0.42969 -0.375,0.44922 l -0.22656,0.0156 c -0.0117,0.004 -0.0195,0.004 -0.0312,0.004 z m -13.90625,0.0664 h -0.22266 c -0.22656,0 -0.41406,-0.1875 -0.41406,-0.41797 0,-0.22656 0.1875,-0.41015 0.41406,-0.41015 h 0.22266 c 0.23047,0 0.41406,0.18359 0.41406,0.41015 0,0.23047 -0.18359,0.41797 -0.41406,0.41797 z m 3.53125,0 h -0.21875 c -0.23047,0 -0.41407,-0.1875 -0.41407,-0.41797 0,-0.22656 0.1836,-0.41015 0.41407,-0.41015 h 0.21875 c 0.23047,0 0.41406,0.18359 0.41406,0.41015 0,0.23047 -0.18359,0.41797 -0.41406,0.41797 z m 3.53515,0 h -0.22265 c -0.22657,0 -0.41407,-0.1875 -0.41407,-0.41797 0,-0.22656 0.1875,-0.41015 0.41407,-0.41015 h 0.22265 c 0.22657,0 0.41407,0.18359 0.41407,0.41015 0,0.23047 -0.1875,0.41797 -0.41407,0.41797 z m 3.53125,0 h -0.21875 c -0.23047,0 -0.41797,-0.1875 -0.41797,-0.41797 0,-0.22656 0.1875,-0.41015 0.41797,-0.41015 h 0.21875 c 0.23047,0 0.41407,0.18359 0.41407,0.41015 0,0.23047 -0.1836,0.41797 -0.41407,0.41797"
       fill-opacity="1"
       fill-rule="nonzero"
       id="path8" />
    <path
       fill="#ffffff"
       d="m 222.10937,188.14062 h -71.48828 c -10.15625,0 -18.38672,-8.23046 -18.38672,-18.38281 v -61.96484 c 0,-10.156251 8.23047,-18.38672 18.38672,-18.38672 h 71.48828 c 10.15625,0 18.38672,8.230469 18.38672,18.38672 v 61.96484 c 0,10.15235 -8.23047,18.38281 -18.38672,18.38281"
       fill-opacity="1"
       fill-rule="nonzero"
       id="path9" />
    <path
       fill="#000000"
       d="m 170.51172,78.878906 c -0.10547,0 -0.21485,-0.04297 -0.29297,-0.121094 -0.16016,-0.164062 -0.16016,-0.425781 0,-0.585937 l 0.53516,-0.539063 c 0.16406,-0.160156 0.42578,-0.160156 0.58593,0 0.16407,0.164063 0.16407,0.425782 0,0.585938 l -0.53515,0.539062 c -0.082,0.07813 -0.1875,0.121094 -0.29297,0.121094"
       fill-opacity="1"
       fill-rule="nonzero"
       id="path10" />
    <path
       fill="#000000"
       d="m 166.74609,82.640625 c -0.10547,0 -0.21093,-0.03906 -0.28906,-0.121094 -0.16406,-0.160156 -0.16406,-0.425781 0,-0.585937 l 0.53516,-0.539063 c 0.16406,-0.160156 0.42578,-0.160156 0.58593,0 0.16016,0.164063 0.16016,0.425781 0,0.585938 l -0.53906,0.539062 c -0.0781,0.08203 -0.18359,0.121094 -0.29297,0.121094"
       fill-opacity="1"
       fill-rule="nonzero"
       id="path11" />
    <path
       fill="#000000"
       d="m 167.28516,78.878906 c -0.10547,0 -0.21094,-0.04297 -0.29297,-0.121094 l -0.53516,-0.539062 c -0.16406,-0.160156 -0.16406,-0.421875 0,-0.585938 0.16016,-0.160156 0.42188,-0.160156 0.58203,0 l 0.53906,0.539063 c 0.16016,0.160156 0.16016,0.421875 0,0.585937 -0.082,0.07813 -0.1875,0.121094 -0.29296,0.121094"
       fill-opacity="1"
       fill-rule="nonzero"
       id="path12" />
    <path
       fill="#000000"
       d="m 171.04687,82.640625 c -0.10546,0 -0.21093,-0.03906 -0.29296,-0.121094 l -0.53516,-0.539062 c -0.16016,-0.160157 -0.16016,-0.421875 0,-0.585938 0.16016,-0.160156 0.42187,-0.160156 0.58594,0 l 0.53515,0.539063 c 0.16407,0.160156 0.16407,0.425781 0,0.585937 -0.0781,0.08203 -0.1875,0.121094 -0.29297,0.121094"
       fill-opacity="1"
       fill-rule="nonzero"
       id="path13" />
    <path
       fill="#000000"
       d="m 139.38281,194.40234 c -0.10937,0 -0.21094,-0.0391 -0.29297,-0.12109 -0.16406,-0.16406 -0.16406,-0.42578 0,-0.58594 l 0.53516,-0.53906 c 0.16406,-0.16016 0.42578,-0.16016 0.58594,0 0.16015,0.16406 0.16406,0.42578 0,0.58594 l -0.53907,0.53906 c -0.0781,0.082 -0.18359,0.12109 -0.28906,0.12109"
       fill-opacity="1"
       fill-rule="nonzero"
       id="path14" />
    <path
       fill="#000000"
       d="m 135.61719,198.16406 c -0.10547,0 -0.21094,-0.0391 -0.29297,-0.12109 -0.16016,-0.16016 -0.16016,-0.42188 0,-0.58594 l 0.53906,-0.53906 c 0.16016,-0.16016 0.42188,-0.16016 0.58594,0 0.16015,0.16406 0.16015,0.42578 0,0.58594 l -0.53906,0.53906 c -0.0781,0.082 -0.1836,0.12109 -0.29297,0.12109"
       fill-opacity="1"
       fill-rule="nonzero"
       id="path15" />
    <path
       fill="#000000"
       d="m 136.15625,194.40234 c -0.10547,0 -0.21094,-0.0391 -0.29297,-0.12109 l -0.53906,-0.53906 c -0.16016,-0.16016 -0.16016,-0.42188 0,-0.58594 0.16406,-0.16016 0.42578,-0.16016 0.58594,0 l 0.53906,0.53906 c 0.16015,0.16016 0.16015,0.42188 0,0.58594 -0.082,0.082 -0.1875,0.12109 -0.29297,0.12109"
       fill-opacity="1"
       fill-rule="nonzero"
       id="path16" />
    <path
       fill="#000000"
       d="m 139.91797,198.16406 c -0.10547,0 -0.21094,-0.0391 -0.29297,-0.12109 l -0.53516,-0.53906 c -0.16406,-0.16016 -0.16406,-0.42188 0,-0.58594 0.16016,-0.16016 0.42188,-0.16016 0.58203,0 l 0.53907,0.53906 c 0.16406,0.16406 0.16015,0.42578 0,0.58594 -0.0781,0.082 -0.1875,0.12109 -0.29297,0.12109"
       fill-opacity="1"
       fill-rule="nonzero"
       id="path17" />
    <path
       fill="#000000"
       d="m 248.44922,118.875 c -1.29688,0 -2.35156,1.05469 -2.35156,2.35156 0,1.30078 1.05468,2.35547 2.35156,2.35547 1.30078,0 2.35547,-1.05469 2.35547,-2.35547 0,-1.29687 -1.05469,-2.35156 -2.35547,-2.35156 z m 0,5.53516 c -1.75391,0 -3.17969,-1.42578 -3.17969,-3.1836 0,-1.75 1.42578,-3.17968 3.17969,-3.17968 1.7539,0 3.18359,1.42968 3.18359,3.17968 0,1.75782 -1.42969,3.1836 -3.18359,3.1836"
       fill-opacity="1"
       fill-rule="nonzero"
       id="path18" />
    <path
       fill="#000000"
       d="m 215.86719,83.109375 c -1.15625,0 -2.32032,0.109375 -3.48047,0.335937 l -70.80078,13.695313 c -9.8125,1.898437 -16.25391,11.429685 -14.35547,21.242185 l 11.87109,61.36328 c 1.67578,8.65625 9.28516,14.6875 17.79297,14.69141 1.14063,0 2.29297,-0.10938 3.44922,-0.33203 l 70.80078,-13.69531 c 4.75391,-0.92188 8.86328,-3.63672 11.57813,-7.65235 2.71093,-4.01172 3.69921,-8.83984 2.77734,-13.59375 L 233.62891,97.800781 c -0.92188,-4.753906 -3.63672,-8.867187 -7.64844,-11.578125 -3.03125,-2.050781 -6.53125,-3.113281 -10.11328,-3.113281 z M 156.89453,195.26172 c -8.89453,0 -16.85547,-6.30469 -18.60547,-15.35547 l -11.87109,-61.36328 c -1.98438,-10.26563 4.75,-20.23047 15.01172,-22.214845 l 70.79687,-13.695313 c 4.97266,-0.960937 10.02344,0.07031 14.21875,2.902344 4.19531,2.835938 7.03125,7.136719 7.9961,12.109375 l 11.87109,61.363279 c 0.96094,4.96875 -0.0703,10.01953 -2.90625,14.21485 -2.83594,4.19531 -7.13281,7.03515 -12.10547,7.99609 l -0.0781,-0.40625 0.0781,0.40625 -70.79687,13.69922 c -1.21485,0.23437 -2.41797,0.34375 -3.60938,0.34375"
       fill-opacity="1"
       fill-rule="nonzero"
       id="path19" />
    <g
       clip-path="url(#05e1fd2a32)"
       id="g20">
      <path
         fill="#000000"
         d="m 250.30078,92.394531 6.73438,-2.582031 -1.82422,-3.386719 z m 0,0"
         fill-opacity="1"
         fill-rule="nonzero"
         id="path20" />
    </g>
    <g
       clip-path="url(#7915c49b97)"
       id="g21">
      <path
         fill="#000000"
         d="m 242.32812,75.410156 -4.60156,11.617188 8.17578,-9.160156 z m 0,0"
         fill-opacity="1"
         fill-rule="nonzero"
         id="path21" />
    </g>
    <g
       clip-path="url(#c21df91a5b)"
       id="g22">
      <path
         fill="#000000"
         d="m 247.66797,179.21094 8.32812,6.75781 0.97657,-3.89844 z m 0,0"
         fill-opacity="1"
         fill-rule="nonzero"
         id="path22" />
    </g>
    <path
       fill="#000000"
       d="m 126.89063,174.82422 -7.03907,-0.1875 0.37891,3.73828 z m 0,0"
       fill-opacity="1"
       fill-rule="nonzero"
       id="path23" />
    <path
       fill="#000000"
       d="m 121.79688,192.9375 8.49218,-8.75781 -10.80078,5.20703 z m 0,0"
       fill-opacity="1"
       fill-rule="nonzero"
       id="path24" />
    <g
       clip-path="url(#f7f6cba8f1)"
       id="g25">
      <path
         fill="#000000"
         d="m 124.19922,101.88672 -5.53906,-4.687501 -0.71485,2.625 z m 0,0"
         fill-opacity="1"
         fill-rule="nonzero"
         id="path25" />
    </g>
    <path
       fill="#000000"
       d="m 189.17578,158.55469 c -10.83203,-2.42578 -12.05859,-11.33594 -12.19531,-13.10157 l 5.39062,-1.44531 c 0.61719,-0.16406 1.05469,-0.66015 1.14063,-1.29687 0.0859,-0.63282 -0.20313,-1.22657 -0.75391,-1.55078 l -15.47265,-9.09766 c -0.45313,-0.26953 -0.98047,-0.33984 -1.48829,-0.20313 -0.50781,0.13672 -0.92968,0.46094 -1.1914,0.91797 l -8.84766,15.61719 c -0.3164,0.55859 -0.26953,1.21484 0.1211,1.72266 0.39062,0.5039 1.01562,0.71484 1.63671,0.55078 l 5.41016,-1.44922 c 2.69141,8.80078 9.55469,14.65234 16.60156,14.65234 1.08594,0 2.1836,-0.14062 3.26563,-0.42968 2.52344,-0.67579 4.80078,-2.15625 6.58594,-4.28516 0.082,-0.0977 0.10937,-0.23438 0.0664,-0.35938 -0.0391,-0.12109 -0.14453,-0.21093 -0.26953,-0.24218"
       fill-opacity="1"
       fill-rule="nonzero"
       id="path26" />
    <path
       fill="#000000"
       d="m 209.44922,158.86328 c 7.24609,-7.76953 8.30859,-18.39062 2.38672,-24.31641 -1.72266,-1.71875 -3.85938,-2.875 -6.35547,-3.42968 -0.13672,-0.0312 -0.27735,0.0156 -0.36719,0.12109 -0.0898,0.10547 -0.10937,0.25391 -0.0586,0.37891 3.54297,8.60156 -4.37891,15.67578 -5.91016,16.9375 l -3.92969,-3.92578 c -0.44922,-0.45313 -1.09765,-0.58204 -1.6914,-0.33985 -0.59375,0.24219 -0.96094,0.78906 -0.96875,1.42969 l -0.14453,17.94922 c 0,0.52734 0.19921,1.01953 0.57031,1.39062 0.37109,0.36719 0.85547,0.57032 1.375,0.57032 0.008,0 0.0117,0 0.0156,0 l 17.95313,-0.14454 c 0.63672,-0.004 1.18359,-0.375 1.42578,-0.96875 0.24219,-0.58984 0.11328,-1.23828 -0.33984,-1.6914 l -3.96094,-3.96094"
       fill-opacity="1"
       fill-rule="nonzero"
       id="path27" />
    <path
       fill="#000000"
       d="m 208.20312,125.33594 c 0.13672,-0.50781 0.0625,-1.03516 -0.20312,-1.48828 L 198.90234,108.375 c -0.32422,-0.55469 -0.92187,-0.83984 -1.55468,-0.75781 -0.63282,0.0898 -1.12891,0.52344 -1.29297,1.14453 l -1.45313,5.41016 c -10.35156,-2.39063 -20.07812,2 -22.24609,10.08984 -0.67969,2.52734 -0.53516,5.24609 0.41797,7.85937 0.0469,0.12891 0.16406,0.22266 0.30078,0.23828 0.13672,0.0156 0.27344,-0.043 0.35547,-0.15625 4.76953,-6.94531 15.35937,-4.47265 17.39062,-3.92187 l -1.42578,5.33594 c -0.16797,0.61718 0.043,1.24218 0.55078,1.63281 0.28125,0.21875 0.61328,0.33203 0.94922,0.33203 0.26172,0 0.52734,-0.0703 0.77344,-0.20703 l 15.61328,-8.85156 c 0.45703,-0.25781 0.78516,-0.67969 0.92187,-1.1875"
       fill-opacity="1"
       fill-rule="nonzero"
       id="path28" />
  </g>
  <g
     id="g2"
     transform="translate(-43.412897,-53.779098)">
    <g
       fill="#000000"
       fill-opacity="1"
       id="g31"
       transform="translate(-31.779661,27.542373)">
      <g
         transform="translate(81.436351,224.53679)"
         id="g30">
        <g
           id="g29">
          <path
             d="m 15.796875,-18.984375 c 0.65625,0 1.101563,0.07422 1.34375,0.21875 C 17.378906,-18.617188 17.5,-18.363281 17.5,-18 v 6.03125 c 0,0.355469 -0.164062,0.609375 -0.484375,0.765625 -0.3125,0.148437 -0.84375,0.21875 -1.59375,0.21875 -0.492187,0 -0.871094,-0.03125 -1.140625,-0.09375 -0.261719,-0.07031 -0.445312,-0.175781 -0.546875,-0.3125 -0.105469,-0.132813 -0.15625,-0.328125 -0.15625,-0.578125 0,-1.050781 -0.289063,-1.890625 -0.859375,-2.515625 -0.574219,-0.625 -1.386719,-0.9375 -2.4375,-0.9375 -1.460938,0 -2.570312,0.527344 -3.328125,1.578125 -0.75,1.042969 -1.125,2.546875 -1.125,4.515625 0,1.949219 0.398437,3.453125 1.203125,4.515625 0.800781,1.0625 1.9375,1.59375 3.40625,1.59375 0.90625,0 1.773438,-0.117188 2.609375,-0.359375 0.84375,-0.25 1.753906,-0.628906 2.734375,-1.140625 0.164062,-0.082031 0.328125,-0.125 0.484375,-0.125 0.488281,0 0.894531,0.4375 1.21875,1.3125 0.144531,0.398438 0.21875,0.75 0.21875,1.0625 0,0.53125 -0.242187,0.917969 -0.71875,1.15625 -2.242187,1.105469 -4.476563,1.65625 -6.703125,1.65625 -1.71875,0 -3.234375,-0.390625 -4.546875,-1.171875 -1.3125,-0.789063 -2.328125,-1.914063 -3.046875,-3.375 -0.710938,-1.457031 -1.0625,-3.164063 -1.0625,-5.125 0,-1.945313 0.347656,-3.648437 1.046875,-5.109375 0.695313,-1.46875 1.664063,-2.59375 2.90625,-3.375 1.25,-0.78125 2.65625,-1.171875 4.21875,-1.171875 1.832031,0 3.195313,0.65625 4.09375,1.96875 V -18 c 0,-0.351562 0.148437,-0.601562 0.453125,-0.75 0.300781,-0.15625 0.785156,-0.234375 1.453125,-0.234375 z m 0,0"
             id="path29" />
        </g>
      </g>
    </g>
    <g
       fill="#000000"
       fill-opacity="1"
       id="g34"
       transform="translate(-31.779661,27.542373)">
      <g
         transform="translate(100.71826,224.53679)"
         id="g33">
        <g
           id="g32">
          <path
             d="m 9.46875,-14.859375 c 2.300781,0 3.960938,0.5 4.984375,1.5 C 15.484375,-12.367188 16,-10.945312 16,-9.09375 v 4.53125 c 0,0.429688 0.08594,0.761719 0.265625,1 0.1875,0.230469 0.445313,0.34375 0.78125,0.34375 h 0.484375 c 0.25,0 0.441406,0.046875 0.578125,0.140625 0.132813,0.085937 0.234375,0.242187 0.296875,0.46875 0.07031,0.230469 0.109375,0.5625 0.109375,1 0,0.449219 -0.03906,0.789063 -0.109375,1.015625 -0.0625,0.230469 -0.164062,0.386719 -0.296875,0.46875 C 17.972656,-0.0390625 17.78125,0 17.53125,0 h -1.765625 c -0.648437,0 -1.21875,-0.128906 -1.71875,-0.390625 -0.492187,-0.269531 -0.871094,-0.695313 -1.140625,-1.28125 -0.824219,0.648437 -1.699219,1.148437 -2.625,1.5 C 9.363281,0.171875 8.421875,0.34375 7.453125,0.34375 6.265625,0.34375 5.238281,0.144531 4.375,-0.25 3.519531,-0.65625 2.863281,-1.234375 2.40625,-1.984375 1.957031,-2.734375 1.734375,-3.617188 1.734375,-4.640625 1.734375,-6.097656 2.25,-7.226562 3.28125,-8.03125 4.320312,-8.84375 5.773438,-9.25 7.640625,-9.25 c 1.382813,0 2.863281,0.15625 4.4375,0.46875 v -0.453125 c 0,-0.707031 -0.21875,-1.226563 -0.65625,-1.5625 -0.4375,-0.332031 -1.214844,-0.5 -2.328125,-0.5 -0.617188,0 -1.304688,0.07813 -2.0625,0.234375 -0.761719,0.148438 -1.511719,0.34375 -2.25,0.59375 -0.179688,0.05469 -0.335938,0.07813 -0.46875,0.07813 -0.261719,0 -0.496094,-0.09375 -0.703125,-0.28125 -0.199219,-0.195313 -0.382813,-0.523437 -0.546875,-0.984375 -0.15625,-0.457031 -0.234375,-0.832031 -0.234375,-1.125 0,-0.539062 0.238281,-0.898438 0.71875,-1.078125 0.9375,-0.332031 1.925781,-0.582031 2.96875,-0.75 1.050781,-0.164063 2.035156,-0.25 2.953125,-0.25 z m -1.4375,8.84375 c -0.742188,0 -1.304688,0.132813 -1.6875,0.390625 -0.375,0.261719 -0.5625,0.640625 -0.5625,1.140625 0,0.5 0.179688,0.882813 0.546875,1.140625 0.375,0.25 0.914063,0.375 1.625,0.375 0.71875,0 1.429687,-0.140625 2.140625,-0.421875 0.707031,-0.289063 1.367188,-0.691406 1.984375,-1.203125 v -1 C 10.691406,-5.875 9.34375,-6.015625 8.03125,-6.015625 Z m 0,0"
             id="path31" />
        </g>
      </g>
    </g>
    <g
       fill="#000000"
       fill-opacity="1"
       id="g37"
       transform="translate(-31.779661,27.542373)">
      <g
         transform="translate(120.00016,224.53679)"
         id="g36">
        <g
           id="g35">
          <path
             d="m 14.5625,-14.859375 c 0.882812,0 1.722656,0.292969 2.515625,0.875 0.457031,0.335937 0.6875,0.777344 0.6875,1.328125 0,0.34375 -0.09375,0.75 -0.28125,1.21875 -0.1875,0.46875 -0.402344,0.828125 -0.640625,1.078125 C 16.613281,-10.117188 16.367188,-10 16.109375,-10 c -0.15625,0 -0.320313,-0.03906 -0.484375,-0.125 -0.585938,-0.332031 -1.1875,-0.5 -1.8125,-0.5 -0.8125,0 -1.570312,0.261719 -2.265625,0.78125 -0.699219,0.511719 -1.261719,1.21875 -1.6875,2.125 -0.429687,0.898438 -0.640625,1.898438 -0.640625,3 v 1.5 h 4.515625 c 0.25,0 0.441406,0.046875 0.578125,0.140625 0.132812,0.085937 0.234375,0.242187 0.296875,0.46875 0.07031,0.230469 0.109375,0.5625 0.109375,1 0,0.449219 -0.03906,0.789063 -0.109375,1.015625 -0.0625,0.230469 -0.164063,0.386719 -0.296875,0.46875 C 14.175781,-0.0390625 13.984375,0 13.734375,0 h -10.75 C 2.734375,0 2.539062,-0.0390625 2.40625,-0.125 2.269531,-0.207031 2.164062,-0.363281 2.09375,-0.59375 2.03125,-0.820312 2,-1.160156 2,-1.609375 c 0,-0.4375 0.03125,-0.769531 0.09375,-1 0.070312,-0.226563 0.175781,-0.382813 0.3125,-0.46875 0.132812,-0.09375 0.328125,-0.140625 0.578125,-0.140625 h 2.3125 v -8.078125 h -1.84375 c -0.25,0 -0.445313,-0.03906 -0.578125,-0.125 -0.136719,-0.08203 -0.242188,-0.238281 -0.3125,-0.46875 -0.0625,-0.226563 -0.09375,-0.5625 -0.09375,-1 0,-0.445313 0.03125,-0.785156 0.09375,-1.015625 0.070312,-0.226562 0.175781,-0.382812 0.3125,-0.46875 0.132812,-0.09375 0.328125,-0.140625 0.578125,-0.140625 h 4.3125 c 0.351563,0 0.601563,0.07813 0.75,0.234375 0.15625,0.148438 0.234375,0.398438 0.234375,0.75 v 3.421875 c 0.78125,-1.519531 1.679688,-2.691406 2.703125,-3.515625 1.019531,-0.820312 2.054687,-1.234375 3.109375,-1.234375 z m 0,0"
             id="path34" />
        </g>
      </g>
    </g>
    <g
       fill="#000000"
       fill-opacity="1"
       id="g40"
       transform="translate(-31.779661,27.542373)">
      <g
         transform="translate(139.28207,224.53679)"
         id="g39">
        <g
           id="g38">
          <path
             d="m 5.875,-20.609375 c 0.351562,0 0.601562,0.07813 0.75,0.234375 0.15625,0.148438 0.234375,0.398438 0.234375,0.75 V -13 c 0.539063,-0.601562 1.160156,-1.0625 1.859375,-1.375 0.695312,-0.320312 1.457031,-0.484375 2.28125,-0.484375 1.363281,0 2.5625,0.339844 3.59375,1.015625 1.03125,0.667969 1.816406,1.578125 2.359375,2.734375 0.539063,1.148437 0.8125,2.433594 0.8125,3.859375 0,1.417969 -0.273437,2.703125 -0.8125,3.859375 -0.542969,1.148437 -1.328125,2.058594 -2.359375,2.734375 -1.03125,0.6640625 -2.230469,1 -3.59375,1 -1,0 -1.914062,-0.230469 -2.734375,-0.6875 -0.8125,-0.46875 -1.492187,-1.125 -2.03125,-1.96875 v 1.328125 C 6.234375,-0.628906 6.15625,-0.375 6,-0.21875 5.851562,-0.0703125 5.601562,0 5.25,0 H 1.734375 C 1.472656,0 1.273438,-0.0390625 1.140625,-0.125 1.003906,-0.21875 0.898438,-0.378906 0.828125,-0.609375 0.765625,-0.835938 0.734375,-1.175781 0.734375,-1.625 c 0,-0.4375 0.03125,-0.769531 0.09375,-1 0.070313,-0.226562 0.175781,-0.382812 0.3125,-0.46875 0.132813,-0.082031 0.332031,-0.125 0.59375,-0.125 H 2.9375 V -17.390625 H 1.40625 c -0.25,0 -0.445312,-0.03906 -0.578125,-0.125 -0.136719,-0.08203 -0.242187,-0.238281 -0.3125,-0.46875 -0.0625,-0.226563 -0.09375,-0.5625 -0.09375,-1 0,-0.445313 0.03125,-0.785156 0.09375,-1.015625 0.070313,-0.226562 0.175781,-0.382812 0.3125,-0.46875 0.132813,-0.09375 0.328125,-0.140625 0.578125,-0.140625 z m 4.5,9.3125 c -0.679688,0 -1.289062,0.15625 -1.828125,0.46875 -0.542969,0.3125 -0.980469,0.777344 -1.3125,1.390625 C 6.910156,-8.820312 6.75,-8.09375 6.75,-7.25 c 0,0.835938 0.160156,1.558594 0.484375,2.171875 0.332031,0.617187 0.769531,1.078125 1.3125,1.390625 0.539063,0.3125 1.148437,0.46875 1.828125,0.46875 0.644531,0 1.207031,-0.160156 1.6875,-0.484375 0.476562,-0.332031 0.847656,-0.800781 1.109375,-1.40625 C 13.429688,-5.722656 13.5625,-6.4375 13.5625,-7.25 c 0,-0.820312 -0.132812,-1.535156 -0.390625,-2.140625 -0.261719,-0.613281 -0.632813,-1.082031 -1.109375,-1.40625 -0.480469,-0.332031 -1.042969,-0.5 -1.6875,-0.5 z m 0,0"
             id="path37" />
        </g>
      </g>
    </g>
    <g
       fill="#000000"
       fill-opacity="1"
       id="g43"
       transform="translate(-31.779661,27.542373)">
      <g
         transform="translate(158.56397,224.53679)"
         id="g42">
        <g
           id="g41">
          <path
             d="m 9.640625,-14.859375 c 1.59375,0 2.984375,0.328125 4.171875,0.984375 1.195312,0.648438 2.117188,1.546875 2.765625,2.703125 0.644531,1.148437 0.96875,2.453125 0.96875,3.921875 0,1.460938 -0.324219,2.765625 -0.96875,3.921875 C 15.929688,-2.179688 15.007812,-1.28125 13.8125,-0.625 12.625,0.0195312 11.234375,0.34375 9.640625,0.34375 c -1.59375,0 -2.992187,-0.3242188 -4.1875,-0.96875 -1.1875,-0.65625 -2.105469,-1.554688 -2.75,-2.703125 C 2.066406,-4.484375 1.75,-5.789062 1.75,-7.25 c 0,-1.46875 0.316406,-2.773438 0.953125,-3.921875 0.644531,-1.15625 1.5625,-2.054687 2.75,-2.703125 1.195313,-0.65625 2.59375,-0.984375 4.1875,-0.984375 z m 0,3.5625 c -0.75,0 -1.40625,0.167969 -1.96875,0.5 -0.554687,0.324219 -0.980469,0.792969 -1.28125,1.40625 -0.292969,0.605469 -0.4375,1.320313 -0.4375,2.140625 0,0.8125 0.144531,1.527344 0.4375,2.140625 0.300781,0.605469 0.726563,1.074219 1.28125,1.40625 0.5625,0.324219 1.21875,0.484375 1.96875,0.484375 0.757813,0 1.414063,-0.160156 1.96875,-0.484375 0.550781,-0.332031 0.976563,-0.800781 1.28125,-1.40625 C 13.191406,-5.722656 13.34375,-6.4375 13.34375,-7.25 c 0,-0.820312 -0.152344,-1.535156 -0.453125,-2.140625 -0.304687,-0.613281 -0.730469,-1.082031 -1.28125,-1.40625 -0.554687,-0.332031 -1.210937,-0.5 -1.96875,-0.5 z m 0,0"
             id="path40" />
        </g>
      </g>
    </g>
    <g
       fill="#000000"
       fill-opacity="1"
       id="g46"
       transform="translate(-31.779661,27.542373)">
      <g
         transform="translate(177.84588,224.53679)"
         id="g45">
        <g
           id="g44">
          <path
             d="m 11.890625,-14.859375 c 0.957031,0 1.789063,0.210937 2.5,0.625 0.71875,0.417969 1.269531,1.011719 1.65625,1.78125 0.394531,0.773437 0.59375,1.679687 0.59375,2.71875 v 6.515625 h 1.203125 c 0.25,0 0.441406,0.046875 0.578125,0.140625 0.132813,0.085937 0.234375,0.242187 0.296875,0.46875 0.07031,0.230469 0.109375,0.5625 0.109375,1 0,0.449219 -0.03906,0.789063 -0.109375,1.015625 -0.0625,0.230469 -0.164062,0.386719 -0.296875,0.46875 C 18.285156,-0.0390625 18.09375,0 17.84375,0 h -5.875 c -0.25,0 -0.445312,-0.0390625 -0.578125,-0.125 -0.136719,-0.082031 -0.242187,-0.238281 -0.3125,-0.46875 -0.0625,-0.226562 -0.09375,-0.566406 -0.09375,-1.015625 0,-0.4375 0.03125,-0.769531 0.09375,-1 0.07031,-0.226563 0.175781,-0.382813 0.3125,-0.46875 0.132813,-0.09375 0.328125,-0.140625 0.578125,-0.140625 h 0.734375 V -8.8125 c 0,-0.8125 -0.140625,-1.425781 -0.421875,-1.84375 -0.28125,-0.425781 -0.75,-0.640625 -1.40625,-0.640625 -0.617188,0 -1.195312,0.257813 -1.734375,0.765625 -0.542969,0.511719 -0.980469,1.195312 -1.3125,2.046875 -0.324219,0.84375 -0.484375,1.746094 -0.484375,2.703125 v 2.5625 h 0.734375 c 0.25,0 0.441406,0.046875 0.578125,0.140625 0.132812,0.085937 0.234375,0.242187 0.296875,0.46875 0.070313,0.230469 0.109375,0.5625 0.109375,1 0,0.449219 -0.039062,0.789063 -0.109375,1.015625 C 8.890625,-0.363281 8.789062,-0.207031 8.65625,-0.125 8.519531,-0.0390625 8.328125,0 8.078125,0 h -5.875 c -0.25,0 -0.449219,-0.0390625 -0.59375,-0.125 -0.136719,-0.082031 -0.242187,-0.238281 -0.3125,-0.46875 -0.0625,-0.226562 -0.09375,-0.566406 -0.09375,-1.015625 0,-0.4375 0.03125,-0.769531 0.09375,-1 0.070313,-0.226563 0.175781,-0.382813 0.3125,-0.46875 0.144531,-0.09375 0.34375,-0.140625 0.59375,-0.140625 H 3.40625 v -8.078125 H 1.890625 c -0.25,0 -0.449219,-0.03906 -0.59375,-0.125 -0.136719,-0.08203 -0.242187,-0.238281 -0.3125,-0.46875 -0.0625,-0.226563 -0.09375,-0.5625 -0.09375,-1 0,-0.445313 0.03125,-0.785156 0.09375,-1.015625 0.070313,-0.226562 0.175781,-0.382812 0.3125,-0.46875 0.144531,-0.09375 0.34375,-0.140625 0.59375,-0.140625 H 5.71875 c 0.351562,0 0.601562,0.07813 0.75,0.234375 0.15625,0.148438 0.234375,0.398438 0.234375,0.75 V -11.25 c 1.382813,-2.40625 3.113281,-3.609375 5.1875,-3.609375 z m 0,0"
             id="path43" />
        </g>
      </g>
    </g>
    <g
       fill="#000000"
       fill-opacity="1"
       id="g49"
       transform="translate(-31.779661,27.542373)">
      <g
         transform="translate(197.12778,224.53679)"
         id="g48">
        <g
           id="g47">
          <path
             d="m 15.625,-10.921875 c 0.25,0 0.441406,0.04687 0.578125,0.140625 0.144531,0.09375 0.25,0.273438 0.3125,0.53125 0.07031,0.25 0.109375,0.621094 0.109375,1.109375 0,0.492187 -0.03906,0.859375 -0.109375,1.109375 -0.0625,0.25 -0.167969,0.421875 -0.3125,0.515625 -0.136719,0.085937 -0.328125,0.125 -0.578125,0.125 H 3.65625 c -0.25,0 -0.445312,-0.039063 -0.578125,-0.125 -0.136719,-0.09375 -0.242187,-0.265625 -0.3125,-0.515625 -0.0625,-0.25 -0.09375,-0.617188 -0.09375,-1.109375 0,-0.488281 0.03125,-0.859375 0.09375,-1.109375 0.070313,-0.257812 0.175781,-0.4375 0.3125,-0.53125 0.132813,-0.09375 0.328125,-0.140625 0.578125,-0.140625 z m 0,0"
             id="path46" />
        </g>
      </g>
    </g>
    <g
       fill="#000000"
       fill-opacity="1"
       id="g52"
       transform="translate(-31.779661,27.542373)">
      <g
         transform="translate(216.40969,224.53679)"
         id="g51">
        <g
           id="g50">
          <path
             d="m 18.609375,-18.640625 c 0.25,0 0.441406,0.04687 0.578125,0.140625 0.144531,0.08594 0.25,0.242188 0.3125,0.46875 0.07031,0.230469 0.109375,0.5625 0.109375,1 0,0.4375 -0.03906,0.777344 -0.109375,1.015625 -0.0625,0.230469 -0.167969,0.386719 -0.3125,0.46875 -0.136719,0.08594 -0.328125,0.125 -0.578125,0.125 h -0.875 l -1.578125,14.75 C 16.125,-0.410156 16.046875,-0.207031 15.921875,-0.0625 15.804688,0.0820312 15.617188,0.1875 15.359375,0.25 15.097656,0.3125 14.726562,0.34375 14.25,0.34375 c -0.6875,0 -1.1875,-0.078125 -1.5,-0.234375 -0.3125,-0.15625 -0.53125,-0.414063 -0.65625,-0.78125 L 9.578125,-8.078125 7.03125,-0.671875 C 6.90625,-0.304688 6.6875,-0.046875 6.375,0.109375 6.0625,0.265625 5.554688,0.34375 4.859375,0.34375 4.367188,0.34375 3.992188,0.3125 3.734375,0.25 3.484375,0.1875 3.300781,0.0820312 3.1875,-0.0625 3.082031,-0.207031 3.015625,-0.410156 2.984375,-0.671875 l -1.53125,-14.75 h -0.78125 c -0.25,0 -0.445313,-0.03906 -0.578125,-0.125 -0.1328125,-0.08203 -0.234375,-0.238281 -0.296875,-0.46875 -0.070313,-0.238281 -0.109375,-0.578125 -0.109375,-1.015625 0,-0.4375 0.039062,-0.769531 0.109375,-1 0.0625,-0.226562 0.1640625,-0.382812 0.296875,-0.46875 0.132812,-0.09375 0.328125,-0.140625 0.578125,-0.140625 h 6.1875 c 0.25,0 0.441406,0.04687 0.578125,0.140625 0.144531,0.08594 0.25,0.242188 0.3125,0.46875 0.070312,0.230469 0.109375,0.5625 0.109375,1 0,0.4375 -0.039063,0.777344 -0.109375,1.015625 -0.0625,0.230469 -0.167969,0.386719 -0.3125,0.46875 -0.136719,0.08594 -0.328125,0.125 -0.578125,0.125 H 5.03125 L 5.859375,-6.25 8.15625,-12.96875 c 0.070312,-0.25 0.210938,-0.4375 0.421875,-0.5625 0.207031,-0.125 0.554687,-0.1875 1.046875,-0.1875 0.53125,0 0.910156,0.05469 1.140625,0.15625 0.226563,0.09375 0.375,0.257812 0.4375,0.484375 l 2.3125,6.828125 0.84375,-9.171875 h -1.625 c -0.25,0 -0.445313,-0.03906 -0.578125,-0.125 -0.136719,-0.08203 -0.242188,-0.238281 -0.3125,-0.46875 -0.0625,-0.238281 -0.09375,-0.578125 -0.09375,-1.015625 0,-0.4375 0.03125,-0.769531 0.09375,-1 0.07031,-0.226562 0.175781,-0.382812 0.3125,-0.46875 0.132812,-0.09375 0.328125,-0.140625 0.578125,-0.140625 z m 0,0"
             id="path49" />
        </g>
      </g>
    </g>
    <g
       fill="#000000"
       fill-opacity="1"
       id="g55"
       transform="translate(-31.779661,27.542373)">
      <g
         transform="translate(235.69159,224.53679)"
         id="g54">
        <g
           id="g53">
          <path
             d="m 10.84375,-14.515625 c 0.351562,0 0.601562,0.07813 0.75,0.234375 0.15625,0.148438 0.234375,0.398438 0.234375,0.75 v 10.3125 H 16.25 c 0.25,0 0.441406,0.046875 0.578125,0.140625 0.132813,0.085937 0.234375,0.242187 0.296875,0.46875 0.07031,0.230469 0.109375,0.5625 0.109375,1 0,0.449219 -0.03906,0.789063 -0.109375,1.015625 -0.0625,0.230469 -0.164062,0.386719 -0.296875,0.46875 C 16.691406,-0.0390625 16.5,0 16.25,0 H 3.609375 C 3.359375,0 3.164062,-0.0390625 3.03125,-0.125 2.894531,-0.207031 2.789062,-0.363281 2.71875,-0.59375 2.65625,-0.820312 2.625,-1.160156 2.625,-1.609375 c 0,-0.4375 0.03125,-0.769531 0.09375,-1 0.070312,-0.226563 0.175781,-0.382813 0.3125,-0.46875 0.132812,-0.09375 0.328125,-0.140625 0.578125,-0.140625 H 7.90625 v -8.078125 H 4.5625 c -0.261719,0 -0.460938,-0.03906 -0.59375,-0.125 -0.136719,-0.08203 -0.242188,-0.238281 -0.3125,-0.46875 -0.0625,-0.226563 -0.09375,-0.5625 -0.09375,-1 0,-0.445313 0.03125,-0.785156 0.09375,-1.015625 0.070312,-0.226562 0.175781,-0.382812 0.3125,-0.46875 0.132812,-0.09375 0.332031,-0.140625 0.59375,-0.140625 z M 9.8125,-21.40625 c 0.75,0 1.269531,0.07813 1.5625,0.234375 0.300781,0.148437 0.453125,0.398437 0.453125,0.75 v 2.578125 c 0,0.355469 -0.140625,0.609375 -0.421875,0.765625 -0.273438,0.148437 -0.777344,0.21875 -1.515625,0.21875 -0.730469,0 -1.246094,-0.07031 -1.546875,-0.21875 -0.292969,-0.15625 -0.4375,-0.410156 -0.4375,-0.765625 v -2.578125 c 0,-0.363281 0.132812,-0.617187 0.40625,-0.765625 0.269531,-0.144531 0.769531,-0.21875 1.5,-0.21875 z m 0,0"
             id="path52" />
        </g>
      </g>
    </g>
    <g
       fill="#000000"
       fill-opacity="1"
       id="g58"
       transform="translate(-31.779661,27.542373)">
      <g
         transform="translate(254.9735,224.53679)"
         id="g57">
        <g
           id="g56">
          <path
             d="m 14.234375,-14.859375 c 0.664063,0 1.140625,0.07813 1.421875,0.234375 0.289062,0.148438 0.4375,0.398438 0.4375,0.75 v 3.3125 c 0,0.367188 -0.117188,0.625 -0.34375,0.78125 -0.230469,0.148438 -0.601562,0.21875 -1.109375,0.21875 -0.554687,0 -0.933594,-0.109375 -1.140625,-0.328125 -0.625,-0.664063 -1.339844,-1.132813 -2.140625,-1.40625 -0.792969,-0.28125 -1.710937,-0.421875 -2.75,-0.421875 -0.617187,0 -1.101563,0.109375 -1.453125,0.328125 -0.355469,0.21875 -0.53125,0.511719 -0.53125,0.875 0,0.449219 0.390625,0.765625 1.171875,0.953125 0.40625,0.105469 1.097656,0.203125 2.078125,0.296875 0.976562,0.117187 1.789062,0.230469 2.4375,0.34375 0.644531,0.117187 1.253906,0.289063 1.828125,0.515625 0.832031,0.34375 1.484375,0.828125 1.953125,1.453125 0.476562,0.617187 0.71875,1.429687 0.71875,2.4375 0,1 -0.246094,1.867187 -0.734375,2.59375 C 15.585938,-1.191406 14.875,-0.628906 13.9375,-0.234375 13,0.148438 11.875,0.34375 10.5625,0.34375 9.101562,0.34375 7.75,-0.0234375 6.5,-0.765625 v 0.125 c 0,0.355469 -0.152344,0.6054688 -0.453125,0.75 C 5.742188,0.265625 5.257812,0.34375 4.59375,0.34375 3.914062,0.34375 3.4375,0.265625 3.15625,0.109375 2.875,-0.0351562 2.734375,-0.285156 2.734375,-0.640625 v -3.5 c 0,-0.351563 0.117187,-0.609375 0.359375,-0.765625 0.25,-0.15625 0.628906,-0.234375 1.140625,-0.234375 0.644531,0 1.082031,0.148437 1.3125,0.4375 0.519531,0.667969 1.1875,1.152344 2,1.453125 0.820313,0.304688 1.722656,0.453125 2.703125,0.453125 1.664062,0 2.5,-0.429687 2.5,-1.296875 0,-0.269531 -0.121094,-0.484375 -0.359375,-0.640625 C 12.160156,-4.890625 11.816406,-5.019531 11.359375,-5.125 11.097656,-5.175781 10.488281,-5.269531 9.53125,-5.40625 8.476562,-5.53125 7.570312,-5.671875 6.8125,-5.828125 6.050781,-5.992188 5.363281,-6.25 4.75,-6.59375 3.300781,-7.394531 2.578125,-8.65625 2.578125,-10.375 c 0,-0.90625 0.242187,-1.695312 0.734375,-2.375 0.488281,-0.6875 1.164062,-1.207031 2.03125,-1.5625 0.863281,-0.363281 1.835938,-0.546875 2.921875,-0.546875 1.582031,0 2.984375,0.382813 4.203125,1.140625 V -13.875 c 0,-0.351562 0.128906,-0.601562 0.390625,-0.75 0.257813,-0.15625 0.71875,-0.234375 1.375,-0.234375 z m 0,0"
             id="path55" />
        </g>
      </g>
    </g>
    <g
       fill="#000000"
       fill-opacity="1"
       id="g61"
       transform="translate(-31.779661,27.542373)">
      <g
         transform="translate(274.2554,224.53679)"
         id="g60">
        <g
           id="g59">
          <path
             d="m 9.859375,-14.859375 c 1.59375,0 2.945313,0.34375 4.0625,1.03125 1.125,0.6875 1.972656,1.640625 2.546875,2.859375 0.570312,1.21875 0.859375,2.617188 0.859375,4.1875 0,0.355469 -0.07813,0.605469 -0.234375,0.75 -0.148438,0.148438 -0.398438,0.21875 -0.75,0.21875 H 6.25 c 0.195312,0.835938 0.625,1.476562 1.28125,1.921875 0.65625,0.449219 1.484375,0.671875 2.484375,0.671875 1.625,0 3.382813,-0.285156 5.28125,-0.859375 0.125,-0.039063 0.25,-0.0625 0.375,-0.0625 0.226563,0 0.425781,0.105469 0.59375,0.3125 0.175781,0.210937 0.332031,0.5625 0.46875,1.0625 0.101563,0.386719 0.15625,0.714844 0.15625,0.984375 0,0.28125 -0.0625,0.5 -0.1875,0.65625 -0.117187,0.148438 -0.308594,0.265625 -0.578125,0.359375 -1.054688,0.34375 -2.125,0.617187 -3.21875,0.8125 C 11.820312,0.242188 10.753906,0.34375 9.703125,0.34375 8.117188,0.34375 6.75,0.0195312 5.59375,-0.625 4.4375,-1.28125 3.554688,-2.179688 2.953125,-3.328125 2.359375,-4.472656 2.0625,-5.78125 2.0625,-7.25 c 0,-1.46875 0.3125,-2.773438 0.9375,-3.921875 0.625,-1.15625 1.53125,-2.054687 2.71875,-2.703125 1.1875,-0.65625 2.566406,-0.984375 4.140625,-0.984375 z m 0,3.5625 c -1.917969,0 -3.101563,0.808594 -3.546875,2.421875 h 6.921875 c -0.1875,-0.757812 -0.574219,-1.351562 -1.15625,-1.78125 -0.574219,-0.425781 -1.3125,-0.640625 -2.21875,-0.640625 z m 0,0"
             id="path58" />
        </g>
      </g>
    </g>
  </g>
</svg>
