<?xml version="1.0" encoding="UTF-8" standalone="no"?>
<svg
   width="184.99481"
   zoomAndPan="magnify"
   viewBox="0 0 138.74611 124.33592"
   height="165.78123"
   preserveAspectRatio="xMidYMid"
   version="1.0"
   id="svg61"
   sodipodi:docname="2.svg"
   xmlns:inkscape="http://www.inkscape.org/namespaces/inkscape"
   xmlns:sodipodi="http://sodipodi.sourceforge.net/DTD/sodipodi-0.dtd"
   xmlns="http://www.w3.org/2000/svg"
   xmlns:svg="http://www.w3.org/2000/svg">
  <sodipodi:namedview
     id="namedview61"
     pagecolor="#ffffff"
     bordercolor="#000000"
     borderopacity="0.25"
     inkscape:showpageshadow="2"
     inkscape:pageopacity="0.0"
     inkscape:pagecheckerboard="0"
     inkscape:deskcolor="#d1d1d1" />
  <defs
     id="defs5">
    <clipPath
       id="345d9e1c2b">
      <path
         d="M 122.57031,77.71875 H 250 V 199.74609 H 122.57031 Z m 0,0"
         clip-rule="nonzero"
         id="path1" />
    </clipPath>
    <clipPath
       id="05e1fd2a32">
      <path
         d="m 250.02734,86.390625 h 6.66407 v 6.070313 h -6.66407 z m 0,0"
         clip-rule="nonzero"
         id="path2" />
    </clipPath>
    <clipPath
       id="7915c49b97">
      <path
         d="m 237,75.40625 h 9 V 88 h -9 z m 0,0"
         clip-rule="nonzero"
         id="path3" />
    </clipPath>
    <clipPath
       id="c21df91a5b">
      <path
         d="m 247.42578,179.16406 h 9.26563 V 186 h -9.26563 z m 0,0"
         clip-rule="nonzero"
         id="path4" />
    </clipPath>
    <clipPath
       id="f7f6cba8f1">
      <path
         d="M 117.94141,97 H 125 v 5 h -7.05859 z m 0,0"
         clip-rule="nonzero"
         id="path5" />
    </clipPath>
  </defs>
  <g
     id="g62"
     transform="translate(-117.94532,-75.410155)">
    <g
       clip-path="url(#345d9e1c2b)"
       id="g6">
      <path
         fill="#000000"
         d="m 207.8125,78.628906 c -2.28906,0 -4.58203,0.445313 -6.76953,1.335938 l -66.22656,26.921876 c -9.17969,3.73437 -13.61328,14.23828 -9.88282,23.41797 l 23.33985,57.40234 c 1.80468,4.44531 5.23828,7.92188 9.66015,9.78906 4.42188,1.86328 9.30469,1.89844 13.75391,0.0898 l 66.22656,-26.92578 c 4.44922,-1.8086 7.92578,-5.23829 9.78906,-9.66016 1.86719,-4.42188 1.89844,-9.30859 0.0898,-13.75391 L 224.45703,89.84375 c -1.80469,-4.445312 -5.23828,-7.925781 -9.66016,-9.789062 -2.25,-0.949219 -4.61718,-1.425782 -6.98437,-1.425782 z M 164.91797,199.74609 c -2.47656,0 -4.95313,-0.49609 -7.3086,-1.48828 -4.625,-1.95312 -8.21093,-5.58984 -10.10546,-10.23828 l -23.33594,-57.40625 c -3.90234,-9.60156 0.73437,-20.58984 10.33594,-24.49219 l 66.22656,-26.925778 c 4.65234,-1.890624 9.76172,-1.855468 14.38672,0.09766 4.6289,1.949219 8.21875,5.585937 10.10547,10.238281 l 23.33984,57.402337 c 1.89062,4.65235 1.85547,9.76172 -0.0937,14.38672 -1.95313,4.625 -5.58984,8.21485 -10.24219,10.10547 l -0.15625,-0.38281 0.15625,0.38281 L 172,198.35156 c -2.28906,0.92969 -4.6875,1.39453 -7.08203,1.39453"
         fill-opacity="1"
         fill-rule="nonzero"
         id="path6" />
    </g>
    <path
       fill="#000000"
       d="m 148.36328,85.78125 c -0.21094,0 -0.39062,-0.15625 -0.41406,-0.371094 -0.0195,-0.226562 0.14453,-0.429687 0.37109,-0.453125 l 0.22656,-0.01953 c 0.22657,-0.02344 0.42579,0.144531 0.44922,0.375 0.0195,0.226562 -0.14843,0.425781 -0.375,0.449219 l -0.21875,0.01953 c -0.0117,0 -0.0273,0 -0.0391,0 z m -3.47266,0.628906 c -0.18359,0 -0.35156,-0.125 -0.39843,-0.3125 -0.0586,-0.21875 0.0742,-0.445312 0.29297,-0.503906 L 145,85.539062 c 0.22266,-0.05469 0.44922,0.07813 0.50391,0.300782 0.0586,0.21875 -0.0781,0.445312 -0.29688,0.5 l -0.21094,0.05469 c -0.0352,0.0078 -0.0703,0.01563 -0.10547,0.01563 z m -3.32812,1.164063 c -0.16016,0 -0.3125,-0.09375 -0.37891,-0.25 -0.0937,-0.210938 0,-0.453125 0.21094,-0.546875 l 0.20703,-0.08594 c 0.21094,-0.08984 0.45313,0.0078 0.54297,0.214844 0.0898,0.210938 -0.008,0.453125 -0.21875,0.542969 l -0.19531,0.08984 c -0.0547,0.02344 -0.11328,0.03516 -0.16797,0.03516 z m -3.10547,1.667969 c -0.13672,0 -0.26953,-0.06641 -0.34766,-0.1875 -0.125,-0.191407 -0.0703,-0.449219 0.1211,-0.574219 l 0.1914,-0.121094 c 0.19141,-0.121094 0.44922,-0.0625 0.57032,0.128906 0.12109,0.195313 0.0625,0.453125 -0.12891,0.570313 l -0.18359,0.117187 c -0.0703,0.04687 -0.14844,0.06641 -0.22266,0.06641 z m -2.80859,2.136718 c -0.11719,0 -0.23047,-0.04687 -0.3125,-0.140625 -0.15235,-0.167969 -0.13672,-0.429687 0.0352,-0.582031 l 0.16797,-0.152344 c 0.17188,-0.148437 0.4336,-0.128906 0.58594,0.04297 0.14844,0.171875 0.13281,0.433594 -0.043,0.582031 l -0.16016,0.144532 c -0.0781,0.07031 -0.17968,0.105468 -0.27343,0.105468 z m -2.44532,2.542969 c -0.0937,0 -0.1875,-0.03125 -0.26562,-0.09375 -0.17578,-0.144531 -0.20313,-0.40625 -0.0547,-0.582031 l 0.14453,-0.175782 c 0.14453,-0.171874 0.40625,-0.195312 0.58203,-0.04687 0.17579,0.144531 0.19532,0.40625 0.0508,0.582031 l -0.13672,0.164062 c -0.082,0.101563 -0.20313,0.152344 -0.32032,0.152344 z m -2.02343,2.894531 c -0.0703,0 -0.14453,-0.01953 -0.21094,-0.05859 -0.19531,-0.117187 -0.26172,-0.371093 -0.14453,-0.566406 l 0.11328,-0.195312 c 0.11719,-0.195313 0.375,-0.257813 0.57031,-0.140625 0.19531,0.117187 0.25781,0.371093 0.14063,0.570312 l -0.10938,0.183594 c -0.0781,0.132813 -0.21875,0.207031 -0.35937,0.207031"
       fill-opacity="1"
       fill-rule="nonzero"
       id="path7" />
    <path
       fill="#000000"
       d="m 239.1875,184.85937 c -0.0977,0 -0.19141,-0.0312 -0.26953,-0.10156 -0.17578,-0.14844 -0.19531,-0.41015 -0.0469,-0.58203 l 0.14453,-0.16406 c 0.14454,-0.17578 0.40625,-0.19531 0.58204,-0.0508 0.17187,0.14843 0.19531,0.41015 0.0469,0.58593 L 239.5,184.71484 c -0.082,0.0977 -0.19531,0.14453 -0.3125,0.14453 z m -2.50391,2.48829 c -0.11718,0 -0.23437,-0.0508 -0.3164,-0.14454 -0.14844,-0.17578 -0.125,-0.4375 0.0469,-0.58593 l 0.16406,-0.14063 c 0.17579,-0.14844 0.4336,-0.13281 0.58594,0.043 0.14844,0.17188 0.12891,0.43359 -0.043,0.58203 l -0.16797,0.14844 c -0.0781,0.0625 -0.17578,0.0977 -0.26953,0.0977 z m -2.85937,2.0664 c -0.14063,0 -0.27735,-0.0703 -0.35547,-0.19922 -0.11719,-0.19531 -0.0547,-0.44922 0.14062,-0.5664 l 0.1836,-0.11328 c 0.19531,-0.1211 0.44922,-0.0625 0.57031,0.1289 0.12109,0.19531 0.0625,0.44922 -0.12891,0.57422 l -0.19531,0.11719 c -0.0664,0.0391 -0.14062,0.0586 -0.21484,0.0586 z m -3.14453,1.59766 c -0.16407,0 -0.31641,-0.0977 -0.38282,-0.25781 -0.0859,-0.21094 0.0156,-0.44922 0.22657,-0.53907 l 0.19531,-0.082 c 0.21094,-0.0898 0.45703,0.008 0.54297,0.21875 0.0898,0.21094 -0.008,0.45313 -0.21875,0.54297 l -0.20703,0.0859 c -0.0508,0.0234 -0.10547,0.0312 -0.15625,0.0312 z m -3.35547,1.08594 c -0.1875,0 -0.35938,-0.12891 -0.40235,-0.31641 -0.0547,-0.22266 0.082,-0.44922 0.30469,-0.5 l 0.21094,-0.0547 c 0.22266,-0.0508 0.44531,0.082 0.5,0.30469 0.0547,0.22266 -0.0781,0.44531 -0.30078,0.5 l -0.21875,0.0547 c -0.0312,0.008 -0.0625,0.0117 -0.0937,0.0117 z m -3.48828,0.54296 c -0.21485,0 -0.39453,-0.16406 -0.41407,-0.38281 -0.0156,-0.22656 0.15625,-0.42578 0.38282,-0.44531 l 0.21875,-0.0156 c 0.22656,-0.0195 0.42578,0.14844 0.44531,0.375 0.0195,0.23047 -0.14844,0.42969 -0.375,0.44922 l -0.22656,0.0156 c -0.0117,0.004 -0.0195,0.004 -0.0312,0.004 z m -13.90625,0.0664 h -0.22266 c -0.22656,0 -0.41406,-0.1875 -0.41406,-0.41797 0,-0.22656 0.1875,-0.41015 0.41406,-0.41015 h 0.22266 c 0.23047,0 0.41406,0.18359 0.41406,0.41015 0,0.23047 -0.18359,0.41797 -0.41406,0.41797 z m 3.53125,0 h -0.21875 c -0.23047,0 -0.41407,-0.1875 -0.41407,-0.41797 0,-0.22656 0.1836,-0.41015 0.41407,-0.41015 h 0.21875 c 0.23047,0 0.41406,0.18359 0.41406,0.41015 0,0.23047 -0.18359,0.41797 -0.41406,0.41797 z m 3.53515,0 h -0.22265 c -0.22657,0 -0.41407,-0.1875 -0.41407,-0.41797 0,-0.22656 0.1875,-0.41015 0.41407,-0.41015 h 0.22265 c 0.22657,0 0.41407,0.18359 0.41407,0.41015 0,0.23047 -0.1875,0.41797 -0.41407,0.41797 z m 3.53125,0 h -0.21875 c -0.23047,0 -0.41797,-0.1875 -0.41797,-0.41797 0,-0.22656 0.1875,-0.41015 0.41797,-0.41015 h 0.21875 c 0.23047,0 0.41407,0.18359 0.41407,0.41015 0,0.23047 -0.1836,0.41797 -0.41407,0.41797"
       fill-opacity="1"
       fill-rule="nonzero"
       id="path8" />
    <path
       fill="#ffffff"
       d="m 222.10937,188.14062 h -71.48828 c -10.15625,0 -18.38672,-8.23046 -18.38672,-18.38281 v -61.96484 c 0,-10.156251 8.23047,-18.38672 18.38672,-18.38672 h 71.48828 c 10.15625,0 18.38672,8.230469 18.38672,18.38672 v 61.96484 c 0,10.15235 -8.23047,18.38281 -18.38672,18.38281"
       fill-opacity="1"
       fill-rule="nonzero"
       id="path9" />
    <path
       fill="#000000"
       d="m 170.51172,78.878906 c -0.10547,0 -0.21485,-0.04297 -0.29297,-0.121094 -0.16016,-0.164062 -0.16016,-0.425781 0,-0.585937 l 0.53516,-0.539063 c 0.16406,-0.160156 0.42578,-0.160156 0.58593,0 0.16407,0.164063 0.16407,0.425782 0,0.585938 l -0.53515,0.539062 c -0.082,0.07813 -0.1875,0.121094 -0.29297,0.121094"
       fill-opacity="1"
       fill-rule="nonzero"
       id="path10" />
    <path
       fill="#000000"
       d="m 166.74609,82.640625 c -0.10547,0 -0.21093,-0.03906 -0.28906,-0.121094 -0.16406,-0.160156 -0.16406,-0.425781 0,-0.585937 l 0.53516,-0.539063 c 0.16406,-0.160156 0.42578,-0.160156 0.58593,0 0.16016,0.164063 0.16016,0.425781 0,0.585938 l -0.53906,0.539062 c -0.0781,0.08203 -0.18359,0.121094 -0.29297,0.121094"
       fill-opacity="1"
       fill-rule="nonzero"
       id="path11" />
    <path
       fill="#000000"
       d="m 167.28516,78.878906 c -0.10547,0 -0.21094,-0.04297 -0.29297,-0.121094 l -0.53516,-0.539062 c -0.16406,-0.160156 -0.16406,-0.421875 0,-0.585938 0.16016,-0.160156 0.42188,-0.160156 0.58203,0 l 0.53906,0.539063 c 0.16016,0.160156 0.16016,0.421875 0,0.585937 -0.082,0.07813 -0.1875,0.121094 -0.29296,0.121094"
       fill-opacity="1"
       fill-rule="nonzero"
       id="path12" />
    <path
       fill="#000000"
       d="m 171.04687,82.640625 c -0.10546,0 -0.21093,-0.03906 -0.29296,-0.121094 l -0.53516,-0.539062 c -0.16016,-0.160157 -0.16016,-0.421875 0,-0.585938 0.16016,-0.160156 0.42187,-0.160156 0.58594,0 l 0.53515,0.539063 c 0.16407,0.160156 0.16407,0.425781 0,0.585937 -0.0781,0.08203 -0.1875,0.121094 -0.29297,0.121094"
       fill-opacity="1"
       fill-rule="nonzero"
       id="path13" />
    <path
       fill="#000000"
       d="m 139.38281,194.40234 c -0.10937,0 -0.21094,-0.0391 -0.29297,-0.12109 -0.16406,-0.16406 -0.16406,-0.42578 0,-0.58594 l 0.53516,-0.53906 c 0.16406,-0.16016 0.42578,-0.16016 0.58594,0 0.16015,0.16406 0.16406,0.42578 0,0.58594 l -0.53907,0.53906 c -0.0781,0.082 -0.18359,0.12109 -0.28906,0.12109"
       fill-opacity="1"
       fill-rule="nonzero"
       id="path14" />
    <path
       fill="#000000"
       d="m 135.61719,198.16406 c -0.10547,0 -0.21094,-0.0391 -0.29297,-0.12109 -0.16016,-0.16016 -0.16016,-0.42188 0,-0.58594 l 0.53906,-0.53906 c 0.16016,-0.16016 0.42188,-0.16016 0.58594,0 0.16015,0.16406 0.16015,0.42578 0,0.58594 l -0.53906,0.53906 c -0.0781,0.082 -0.1836,0.12109 -0.29297,0.12109"
       fill-opacity="1"
       fill-rule="nonzero"
       id="path15" />
    <path
       fill="#000000"
       d="m 136.15625,194.40234 c -0.10547,0 -0.21094,-0.0391 -0.29297,-0.12109 l -0.53906,-0.53906 c -0.16016,-0.16016 -0.16016,-0.42188 0,-0.58594 0.16406,-0.16016 0.42578,-0.16016 0.58594,0 l 0.53906,0.53906 c 0.16015,0.16016 0.16015,0.42188 0,0.58594 -0.082,0.082 -0.1875,0.12109 -0.29297,0.12109"
       fill-opacity="1"
       fill-rule="nonzero"
       id="path16" />
    <path
       fill="#000000"
       d="m 139.91797,198.16406 c -0.10547,0 -0.21094,-0.0391 -0.29297,-0.12109 l -0.53516,-0.53906 c -0.16406,-0.16016 -0.16406,-0.42188 0,-0.58594 0.16016,-0.16016 0.42188,-0.16016 0.58203,0 l 0.53907,0.53906 c 0.16406,0.16406 0.16015,0.42578 0,0.58594 -0.0781,0.082 -0.1875,0.12109 -0.29297,0.12109"
       fill-opacity="1"
       fill-rule="nonzero"
       id="path17" />
    <path
       fill="#000000"
       d="m 248.44922,118.875 c -1.29688,0 -2.35156,1.05469 -2.35156,2.35156 0,1.30078 1.05468,2.35547 2.35156,2.35547 1.30078,0 2.35547,-1.05469 2.35547,-2.35547 0,-1.29687 -1.05469,-2.35156 -2.35547,-2.35156 z m 0,5.53516 c -1.75391,0 -3.17969,-1.42578 -3.17969,-3.1836 0,-1.75 1.42578,-3.17968 3.17969,-3.17968 1.7539,0 3.18359,1.42968 3.18359,3.17968 0,1.75782 -1.42969,3.1836 -3.18359,3.1836"
       fill-opacity="1"
       fill-rule="nonzero"
       id="path18" />
    <path
       fill="#000000"
       d="m 215.86719,83.109375 c -1.15625,0 -2.32032,0.109375 -3.48047,0.335937 l -70.80078,13.695313 c -9.8125,1.898437 -16.25391,11.429685 -14.35547,21.242185 l 11.87109,61.36328 c 1.67578,8.65625 9.28516,14.6875 17.79297,14.69141 1.14063,0 2.29297,-0.10938 3.44922,-0.33203 l 70.80078,-13.69531 c 4.75391,-0.92188 8.86328,-3.63672 11.57813,-7.65235 2.71093,-4.01172 3.69921,-8.83984 2.77734,-13.59375 L 233.62891,97.800781 c -0.92188,-4.753906 -3.63672,-8.867187 -7.64844,-11.578125 -3.03125,-2.050781 -6.53125,-3.113281 -10.11328,-3.113281 z M 156.89453,195.26172 c -8.89453,0 -16.85547,-6.30469 -18.60547,-15.35547 l -11.87109,-61.36328 c -1.98438,-10.26563 4.75,-20.23047 15.01172,-22.214845 l 70.79687,-13.695313 c 4.97266,-0.960937 10.02344,0.07031 14.21875,2.902344 4.19531,2.835938 7.03125,7.136719 7.9961,12.109375 l 11.87109,61.363279 c 0.96094,4.96875 -0.0703,10.01953 -2.90625,14.21485 -2.83594,4.19531 -7.13281,7.03515 -12.10547,7.99609 l -0.0781,-0.40625 0.0781,0.40625 -70.79687,13.69922 c -1.21485,0.23437 -2.41797,0.34375 -3.60938,0.34375"
       fill-opacity="1"
       fill-rule="nonzero"
       id="path19" />
    <g
       clip-path="url(#05e1fd2a32)"
       id="g20">
      <path
         fill="#000000"
         d="m 250.30078,92.394531 6.73438,-2.582031 -1.82422,-3.386719 z m 0,0"
         fill-opacity="1"
         fill-rule="nonzero"
         id="path20" />
    </g>
    <g
       clip-path="url(#7915c49b97)"
       id="g21">
      <path
         fill="#000000"
         d="m 242.32812,75.410156 -4.60156,11.617188 8.17578,-9.160156 z m 0,0"
         fill-opacity="1"
         fill-rule="nonzero"
         id="path21" />
    </g>
    <g
       clip-path="url(#c21df91a5b)"
       id="g22">
      <path
         fill="#000000"
         d="m 247.66797,179.21094 8.32812,6.75781 0.97657,-3.89844 z m 0,0"
         fill-opacity="1"
         fill-rule="nonzero"
         id="path22" />
    </g>
    <path
       fill="#000000"
       d="m 126.89063,174.82422 -7.03907,-0.1875 0.37891,3.73828 z m 0,0"
       fill-opacity="1"
       fill-rule="nonzero"
       id="path23" />
    <path
       fill="#000000"
       d="m 121.79688,192.9375 8.49218,-8.75781 -10.80078,5.20703 z m 0,0"
       fill-opacity="1"
       fill-rule="nonzero"
       id="path24" />
    <g
       clip-path="url(#f7f6cba8f1)"
       id="g25">
      <path
         fill="#000000"
         d="m 124.19922,101.88672 -5.53906,-4.687501 -0.71485,2.625 z m 0,0"
         fill-opacity="1"
         fill-rule="nonzero"
         id="path25" />
    </g>
    <path
       fill="#000000"
       d="m 189.17578,158.55469 c -10.83203,-2.42578 -12.05859,-11.33594 -12.19531,-13.10157 l 5.39062,-1.44531 c 0.61719,-0.16406 1.05469,-0.66015 1.14063,-1.29687 0.0859,-0.63282 -0.20313,-1.22657 -0.75391,-1.55078 l -15.47265,-9.09766 c -0.45313,-0.26953 -0.98047,-0.33984 -1.48829,-0.20313 -0.50781,0.13672 -0.92968,0.46094 -1.1914,0.91797 l -8.84766,15.61719 c -0.3164,0.55859 -0.26953,1.21484 0.1211,1.72266 0.39062,0.5039 1.01562,0.71484 1.63671,0.55078 l 5.41016,-1.44922 c 2.69141,8.80078 9.55469,14.65234 16.60156,14.65234 1.08594,0 2.1836,-0.14062 3.26563,-0.42968 2.52344,-0.67579 4.80078,-2.15625 6.58594,-4.28516 0.082,-0.0977 0.10937,-0.23438 0.0664,-0.35938 -0.0391,-0.12109 -0.14453,-0.21093 -0.26953,-0.24218"
       fill-opacity="1"
       fill-rule="nonzero"
       id="path26" />
    <path
       fill="#000000"
       d="m 209.44922,158.86328 c 7.24609,-7.76953 8.30859,-18.39062 2.38672,-24.31641 -1.72266,-1.71875 -3.85938,-2.875 -6.35547,-3.42968 -0.13672,-0.0312 -0.27735,0.0156 -0.36719,0.12109 -0.0898,0.10547 -0.10937,0.25391 -0.0586,0.37891 3.54297,8.60156 -4.37891,15.67578 -5.91016,16.9375 l -3.92969,-3.92578 c -0.44922,-0.45313 -1.09765,-0.58204 -1.6914,-0.33985 -0.59375,0.24219 -0.96094,0.78906 -0.96875,1.42969 l -0.14453,17.94922 c 0,0.52734 0.19921,1.01953 0.57031,1.39062 0.37109,0.36719 0.85547,0.57032 1.375,0.57032 0.008,0 0.0117,0 0.0156,0 l 17.95313,-0.14454 c 0.63672,-0.004 1.18359,-0.375 1.42578,-0.96875 0.24219,-0.58984 0.11328,-1.23828 -0.33984,-1.6914 l -3.96094,-3.96094"
       fill-opacity="1"
       fill-rule="nonzero"
       id="path27" />
    <path
       fill="#000000"
       d="m 208.20312,125.33594 c 0.13672,-0.50781 0.0625,-1.03516 -0.20312,-1.48828 L 198.90234,108.375 c -0.32422,-0.55469 -0.92187,-0.83984 -1.55468,-0.75781 -0.63282,0.0898 -1.12891,0.52344 -1.29297,1.14453 l -1.45313,5.41016 c -10.35156,-2.39063 -20.07812,2 -22.24609,10.08984 -0.67969,2.52734 -0.53516,5.24609 0.41797,7.85937 0.0469,0.12891 0.16406,0.22266 0.30078,0.23828 0.13672,0.0156 0.27344,-0.043 0.35547,-0.15625 4.76953,-6.94531 15.35937,-4.47265 17.39062,-3.92187 l -1.42578,5.33594 c -0.16797,0.61718 0.043,1.24218 0.55078,1.63281 0.28125,0.21875 0.61328,0.33203 0.94922,0.33203 0.26172,0 0.52734,-0.0703 0.77344,-0.20703 l 15.61328,-8.85156 c 0.45703,-0.25781 0.78516,-0.67969 0.92187,-1.1875"
       fill-opacity="1"
       fill-rule="nonzero"
       id="path28" />
  </g>
</svg>
